<?xml version="1.0" encoding="utf-8"?>
<!-- Generator: Adobe Illustrator 16.0.0, SVG Export Plug-In . SVG Version: 6.00 Build 0)  -->
<!DOCTYPE svg PUBLIC "-//W3C//DTD SVG 1.1//EN" "http://www.w3.org/Graphics/SVG/1.1/DTD/svg11.dtd">
<svg version="1.1" xmlns="http://www.w3.org/2000/svg" xmlns:xlink="http://www.w3.org/1999/xlink" x="0px" y="0px" width="800px"
	 height="800px" viewBox="0 0 800 800" enable-background="new 0 0 800 800" xml:space="preserve">
<g id="Layer_5">
	<g display="none">
		<g display="inline">
			<g>
				<g>
					<linearGradient id="SVGID_1_" gradientUnits="userSpaceOnUse" x1="460.2217" y1="258.0571" x2="467.1267" y2="315.804">
						<stop  offset="0" style="stop-color:#00B7EB"/>
						<stop  offset="0.1425" style="stop-color:#03AEE4"/>
						<stop  offset="0.3781" style="stop-color:#0C95D2"/>
						<stop  offset="0.6777" style="stop-color:#1A6CB4"/>
						<stop  offset="1" style="stop-color:#2B388F"/>
					</linearGradient>
					<polygon fill="url(#SVGID_1_)" points="451.341,328.521 496.311,328.521 460.536,262.469 438.05,303.982 					"/>
					<linearGradient id="SVGID_2_" gradientUnits="userSpaceOnUse" x1="439.7656" y1="269.6235" x2="472.5801" y2="324.9503">
						<stop  offset="0" style="stop-color:#00B7EB"/>
						<stop  offset="0.1425" style="stop-color:#03AEE4"/>
						<stop  offset="0.3781" style="stop-color:#0C95D2"/>
						<stop  offset="0.6777" style="stop-color:#1A6CB4"/>
						<stop  offset="1" style="stop-color:#2B388F"/>
					</linearGradient>
					<path fill="url(#SVGID_2_)" d="M453.584,324.755l-11.251-20.773c15.28,2.777,22.023-28.26,34.832-2.897l12.824,23.67H453.584z"
						/>
				</g>
				<linearGradient id="SVGID_3_" gradientUnits="userSpaceOnUse" x1="400.7559" y1="209.7671" x2="462.4911" y2="284.2298">
					<stop  offset="0" style="stop-color:#8BC53F"/>
					<stop  offset="0.1332" style="stop-color:#82BF3F"/>
					<stop  offset="0.3536" style="stop-color:#69AE3D"/>
					<stop  offset="0.6337" style="stop-color:#40933B"/>
					<stop  offset="0.9599" style="stop-color:#076D38"/>
					<stop  offset="1" style="stop-color:#006838"/>
				</linearGradient>
				<polygon fill="url(#SVGID_3_)" points="434.09,216.875 412.479,256.887 412.669,257.233 				"/>
				<g>
					
						<linearGradient id="SVGID_4_" gradientUnits="userSpaceOnUse" x1="402.8887" y1="153.293" x2="309.0092" y2="331.5276" gradientTransform="matrix(0.9946 0.1036 -0.1036 0.9946 28.1998 -35.5321)">
						<stop  offset="0" style="stop-color:#00B7EB"/>
						<stop  offset="0.1425" style="stop-color:#03AEE4"/>
						<stop  offset="0.3781" style="stop-color:#0C95D2"/>
						<stop  offset="0.6777" style="stop-color:#1A6CB4"/>
						<stop  offset="1" style="stop-color:#2B388F"/>
					</linearGradient>
					<polygon fill="url(#SVGID_4_)" points="385.665,138.576 278.519,353 323.229,354.303 412.33,181.779 					"/>
					
						<linearGradient id="SVGID_5_" gradientUnits="userSpaceOnUse" x1="325.9028" y1="288.5947" x2="383.8762" y2="180.4699" gradientTransform="matrix(0.9946 0.1036 -0.1036 0.9946 28.1998 -35.5321)">
						<stop  offset="0" style="stop-color:#00B7EB"/>
						<stop  offset="0.1425" style="stop-color:#03AEE4"/>
						<stop  offset="0.3781" style="stop-color:#0C95D2"/>
						<stop  offset="0.6777" style="stop-color:#1A6CB4"/>
						<stop  offset="1" style="stop-color:#2B388F"/>
					</linearGradient>
					<path opacity="0.7" fill="url(#SVGID_5_)" d="M312.98,291.584L386,151.5l17.27,29.5l-44.732,91.107
						C343.374,262.416,321.033,303.377,312.98,291.584z"/>
				</g>
				<g id="XMLID_2_">
					<g>
						<polygon fill="#EF3D3C" points="493.18,322.87 511.96,356.76 403.27,356.76 421.63,322.87 						"/>
					</g>
					<g>
					</g>
				</g>
				<g>
					<polygon fill="#F1BA4B" points="461.796,171.207 434.09,216.875 412.479,256.887 358.538,356.765 403.269,356.765 
						484.814,211.199 					"/>
					<linearGradient id="SVGID_6_" gradientUnits="userSpaceOnUse" x1="460.0537" y1="277.2876" x2="360.045" y2="345.9998">
						<stop  offset="0" style="stop-color:#FCB813"/>
						<stop  offset="0.1486" style="stop-color:#FBAF14"/>
						<stop  offset="0.3943" style="stop-color:#F89618"/>
						<stop  offset="0.7047" style="stop-color:#F36D1D"/>
						<stop  offset="1" style="stop-color:#EE4023"/>
					</linearGradient>
					<path opacity="0.6" fill="url(#SVGID_6_)" d="M364.855,353l39.042-72.287c5.696,18.308,59.133-43.831,41.582-9.831
						C434.682,291.795,401.024,353,401.024,353H364.855z"/>
				</g>
				<linearGradient id="SVGID_7_" gradientUnits="userSpaceOnUse" x1="497.8496" y1="309.9272" x2="405.5884" y2="373.3165">
					<stop  offset="0" style="stop-color:#FCB813"/>
					<stop  offset="0.1486" style="stop-color:#FBAF14"/>
					<stop  offset="0.3943" style="stop-color:#F89618"/>
					<stop  offset="0.7047" style="stop-color:#F36D1D"/>
					<stop  offset="1" style="stop-color:#EE4023"/>
				</linearGradient>
				<path opacity="0.3" fill="url(#SVGID_7_)" d="M409.593,353l14.276-26.364h27.154c-13.807,18.205,45.505,13.182,33.791,26.364
					H409.593z"/>
				<linearGradient id="SVGID_8_" gradientUnits="userSpaceOnUse" x1="375.2554" y1="415.7168" x2="440.7216" y2="289.5286">
					<stop  offset="0" style="stop-color:#FCB813"/>
					<stop  offset="0.1486" style="stop-color:#FBAF14"/>
					<stop  offset="0.3943" style="stop-color:#F89618"/>
					<stop  offset="0.7047" style="stop-color:#F36D1D"/>
					<stop  offset="1" style="stop-color:#EE4023"/>
				</linearGradient>
				<polygon fill="url(#SVGID_8_)" points="421.629,322.871 403.269,356.765 404.211,356.765 425.994,322.871 				"/>
				<g>
					<linearGradient id="SVGID_9_" gradientUnits="userSpaceOnUse" x1="397.7539" y1="217.9063" x2="430.5586" y2="217.9063">
						<stop  offset="0" style="stop-color:#00B7EB"/>
						<stop  offset="0.1425" style="stop-color:#03AEE4"/>
						<stop  offset="0.3781" style="stop-color:#0C95D2"/>
						<stop  offset="0.6777" style="stop-color:#1A6CB4"/>
						<stop  offset="1" style="stop-color:#2B388F"/>
					</linearGradient>
					<polygon fill="url(#SVGID_9_)" points="416.815,189.373 397.754,222.235 412.479,246.439 430.559,210.127 					"/>
					<linearGradient id="SVGID_10_" gradientUnits="userSpaceOnUse" x1="403.2686" y1="215.353" x2="426.1738" y2="215.353">
						<stop  offset="0" style="stop-color:#00B7EB"/>
						<stop  offset="0.1425" style="stop-color:#03AEE4"/>
						<stop  offset="0.3781" style="stop-color:#0C95D2"/>
						<stop  offset="0.6777" style="stop-color:#1A6CB4"/>
						<stop  offset="1" style="stop-color:#2B388F"/>
					</linearGradient>
					<path fill="url(#SVGID_10_)" d="M416.248,196l9.926,16.231c-15.184-3.265-6.842,40.009-18.832,14.25L403.269,219L416.248,196z"
						/>
				</g>
			</g>
			<g opacity="0.45">
				<path opacity="0" fill="#929497" d="M576.963,358.174c-0.039,1.972-93.392,4.054-176.548,2.715
					c-83.17-1.334-150.547-4.019-150.516-5.995c0.036-1.973,67.481-2.488,150.642-1.155
					C483.702,355.081,577,356.201,576.963,358.174z"/>
				<path opacity="0.0196" fill="#909295" d="M574.087,358.167c-0.038,1.941-91.822,3.984-173.671,2.667
					c-81.862-1.313-148.18-3.956-148.149-5.9c0.035-1.942,66.42-2.449,148.273-1.137
					C482.394,355.116,574.124,356.224,574.087,358.167z"/>
				<path opacity="0.0392" fill="#8E8F92" d="M571.212,358.159c-0.038,1.911-90.254,3.915-170.795,2.618
					c-80.554-1.292-145.813-3.893-145.784-5.806c0.035-1.911,65.36-2.41,145.905-1.118
					C481.085,355.151,571.248,356.248,571.212,358.159z"/>
				<path opacity="0.0588" fill="#8B8D90" d="M568.336,358.152c-0.037,1.88-88.685,3.845-167.918,2.569
					c-79.247-1.271-143.446-3.83-143.417-5.712c0.035-1.88,64.3-2.371,143.537-1.101
					C479.777,355.186,568.371,356.271,568.336,358.152z"/>
				<path opacity="0.0784" fill="#898B8E" d="M565.461,358.145c-0.036,1.849-87.116,3.775-165.042,2.521
					c-77.939-1.251-141.08-3.767-141.051-5.618c0.034-1.849,63.239-2.332,141.169-1.083
					C478.469,355.221,565.496,356.295,565.461,358.145z"/>
				<path opacity="0.098" fill="#87898B" d="M562.585,358.138c-0.035,1.817-85.548,3.705-162.165,2.472
					c-76.631-1.23-138.712-3.704-138.685-5.524c0.034-1.818,62.179-2.292,138.801-1.064
					C477.16,355.256,562.619,356.319,562.585,358.138z"/>
				<path opacity="0.1176" fill="#858689" d="M559.709,358.13c-0.034,1.786-83.979,3.636-159.288,2.423
					c-75.323-1.209-136.35-3.64-136.319-5.429c0.03-1.787,61.119-2.253,136.434-1.046
					C475.852,355.292,559.743,356.342,559.709,358.13z"/>
				<path opacity="0.1373" fill="#838487" d="M556.833,358.123c-0.033,1.755-82.409,3.566-156.411,2.375
					c-74.016-1.188-133.983-3.577-133.953-5.335c0.03-1.756,60.058-2.215,134.065-1.028
					C474.543,355.327,556.867,356.366,556.833,358.123z"/>
				<path opacity="0.1569" fill="#818284" d="M553.958,358.115c-0.033,1.724-80.841,3.496-153.535,2.326
					c-72.708-1.167-131.616-3.514-131.586-5.241c0.029-1.725,58.997-2.175,131.697-1.01
					C473.234,355.362,553.99,356.39,553.958,358.115z"/>
				<path opacity="0.1765" fill="#7E7F82" d="M551.082,358.108c-0.032,1.693-79.271,3.425-150.658,2.277
					c-71.4-1.146-129.249-3.451-129.22-5.146c0.029-1.694,57.937-2.136,129.329-0.992
					C471.926,355.397,551.115,356.413,551.082,358.108z"/>
				<path opacity="0.1961" fill="#7C7D80" d="M548.207,358.1c-0.032,1.663-77.703,3.356-147.782,2.229
					c-70.093-1.125-126.883-3.388-126.854-5.053c0.028-1.663,56.876-2.097,126.961-0.973
					C470.617,355.433,548.238,356.437,548.207,358.1z"/>
				<path opacity="0.2157" fill="#7A7B7D" d="M545.331,358.093c-0.03,1.632-76.134,3.286-144.905,2.18
					c-68.785-1.104-124.516-3.325-124.488-4.958c0.027-1.632,55.816-2.058,124.593-0.956
					C469.309,355.468,545.362,356.46,545.331,358.093z"/>
				<path opacity="0.2353" fill="#78787B" d="M542.455,358.086c-0.029,1.601-74.564,3.216-142.028,2.13
					c-67.477-1.083-122.149-3.262-122.122-4.864c0.027-1.601,54.756-2.019,122.225-0.938
					C468,355.503,542.486,356.484,542.455,358.086z"/>
				<path opacity="0.2549" fill="#767679" d="M539.579,358.079c-0.028,1.569-72.995,3.146-139.151,2.082
					c-66.169-1.063-119.782-3.199-119.755-4.77c0.027-1.569,53.695-1.98,119.857-0.919
					C466.692,355.538,539.61,356.508,539.579,358.079z"/>
				<path opacity="0.2745" fill="#747476" d="M536.704,358.071c-0.028,1.539-71.427,3.077-136.275,2.034
					c-64.861-1.042-117.416-3.136-117.39-4.676c0.026-1.539,52.635-1.94,117.489-0.901
					C465.384,355.573,536.733,356.531,536.704,358.071z"/>
				<path opacity="0.2941" fill="#717274" d="M533.828,358.063c-0.027,1.507-69.857,3.007-133.398,1.985
					c-63.554-1.021-115.049-3.073-115.023-4.582c0.026-1.508,51.574-1.901,115.121-0.883
					C464.075,355.608,533.857,356.555,533.828,358.063z"/>
				<path opacity="0.3137" fill="#6F6F72" d="M530.953,358.056c-0.027,1.477-68.29,2.937-130.522,1.936
					c-62.246-1-112.683-3.01-112.657-4.487c0.025-1.477,50.514-1.863,112.753-0.865
					C462.767,355.644,530.981,356.578,530.953,358.056z"/>
				<path opacity="0.3333" fill="#6D6D6F" d="M528.077,358.049c-0.026,1.445-66.721,2.867-127.646,1.887
					c-60.938-0.979-110.316-2.946-110.291-4.393c0.025-1.445,49.454-1.823,110.385-0.847
					C461.458,355.679,528.105,356.602,528.077,358.049z"/>
				<path opacity="0.3529" fill="#6B6B6D" d="M525.201,358.041c-0.025,1.415-65.15,2.798-124.769,1.839
					c-59.63-0.959-107.949-2.884-107.925-4.299c0.024-1.414,48.393-1.784,108.017-0.829
					C460.15,355.714,525.229,356.625,525.201,358.041z"/>
				<path opacity="0.3725" fill="#69686B" d="M522.326,358.034c-0.024,1.383-63.583,2.728-121.893,1.789
					c-58.323-0.937-105.583-2.82-105.559-4.204c0.024-1.383,47.333-1.745,105.649-0.811
					C458.842,355.749,522.354,356.649,522.326,358.034z"/>
				<path opacity="0.3922" fill="#666668" d="M519.45,358.026c-0.023,1.353-62.014,2.658-119.016,1.741
					c-57.015-0.917-103.216-2.757-103.192-4.11c0.023-1.353,46.271-1.706,103.28-0.792
					C457.533,355.784,519.477,356.673,519.45,358.026z"/>
				<path opacity="0.4118" fill="#646466" d="M516.575,358.02c-0.023,1.321-60.445,2.588-116.14,1.692
					c-55.707-0.896-100.849-2.694-100.826-4.016c0.023-1.321,45.211-1.667,100.912-0.774
					C456.225,355.819,516.601,356.696,516.575,358.02z"/>
				<path opacity="0.4314" fill="#626264" d="M513.699,358.012c-0.022,1.291-58.876,2.519-113.263,1.644
					c-54.399-0.875-98.482-2.631-98.46-3.922c0.022-1.29,44.151-1.628,98.544-0.756C454.916,355.854,513.725,356.72,513.699,358.012
					z"/>
				<path opacity="0.451" fill="#605F61" d="M510.823,358.004c-0.021,1.26-57.307,2.449-110.386,1.595
					c-53.092-0.854-96.116-2.568-96.094-3.828c0.022-1.259,43.091-1.589,96.176-0.738
					C453.607,355.89,510.849,356.743,510.823,358.004z"/>
				<path opacity="0.4706" fill="#5E5D5F" d="M507.947,357.997c-0.022,1.229-55.737,2.379-107.509,1.546
					c-51.784-0.833-93.749-2.505-93.728-3.733c0.021-1.228,42.03-1.55,93.809-0.72C452.299,355.925,507.97,356.767,507.947,357.997z
					"/>
				<path opacity="0.4902" fill="#5C5B5D" d="M505.072,357.99c-0.021,1.197-54.17,2.309-104.633,1.497
					c-50.477-0.813-91.382-2.442-91.361-3.64c0.021-1.197,40.97-1.511,91.44-0.701C450.991,355.96,505.097,356.791,505.072,357.99z"
					/>
				<path opacity="0.5098" fill="#59585A" d="M502.196,357.982c-0.021,1.167-52.601,2.238-101.756,1.448
					c-49.169-0.791-89.016-2.379-88.995-3.545c0.021-1.166,39.909-1.472,89.072-0.683
					C449.683,355.995,502.218,356.814,502.196,357.982z"/>
				<path opacity="0.5294" fill="#575658" d="M499.32,357.975c-0.021,1.136-51.031,2.168-98.879,1.4
					c-47.86-0.771-86.648-2.316-86.628-3.451s38.849-1.432,86.704-0.665C448.374,356.03,499.341,356.838,499.32,357.975z"/>
				<path opacity="0.549" fill="#555456" d="M496.445,357.968c-0.02,1.104-49.463,2.099-96.003,1.351
					c-46.553-0.75-84.283-2.253-84.263-3.356c0.02-1.104,37.789-1.394,84.336-0.648
					C447.065,356.065,496.466,356.861,496.445,357.968z"/>
				<path opacity="0.5686" fill="#535153" d="M493.569,357.96c-0.02,1.074-47.894,2.029-93.126,1.303
					c-45.245-0.729-81.916-2.189-81.896-3.263c0.019-1.072,36.728-1.354,81.968-0.629
					C445.757,356.101,493.589,356.885,493.569,357.96z"/>
				<path opacity="0.5882" fill="#514F51" d="M490.694,357.953c-0.019,1.042-46.325,1.959-90.25,1.253
					c-43.938-0.708-79.549-2.126-79.53-3.168c0.019-1.042,35.667-1.315,79.6-0.611C444.448,356.136,490.714,356.909,490.694,357.953
					z"/>
				<path opacity="0.6078" fill="#4F4D4F" d="M487.818,357.945c-0.019,1.012-44.756,1.89-87.374,1.205
					c-42.629-0.687-77.182-2.063-77.164-3.074s34.606-1.275,77.231-0.592C443.14,356.171,487.837,356.932,487.818,357.945z"/>
				<path opacity="0.6275" fill="#4C4B4C" d="M484.942,357.938c-0.018,0.981-43.187,1.82-84.496,1.157
					c-41.322-0.666-74.815-2.001-74.798-2.98c0.018-0.98,33.547-1.238,74.863-0.575C441.832,356.207,484.96,356.956,484.942,357.938
					z"/>
				<path opacity="0.6471" fill="#4A484A" d="M482.066,357.931c-0.017,0.95-41.617,1.75-81.62,1.107
					c-40.014-0.646-72.448-1.938-72.431-2.885c0.017-0.949,32.486-1.198,72.496-0.557
					C440.523,356.242,482.084,356.979,482.066,357.931z"/>
				<path opacity="0.6667" fill="#484648" d="M479.191,357.924c-0.016,0.918-40.049,1.68-78.743,1.058
					c-38.706-0.624-70.083-1.875-70.065-2.792s31.426-1.158,70.128-0.538C439.215,356.277,479.208,357.003,479.191,357.924z"/>
				<path opacity="0.6863" fill="#464445" d="M476.316,357.916c-0.016,0.888-38.48,1.61-75.868,1.01
					c-37.398-0.603-67.715-1.812-67.699-2.697c0.017-0.886,30.365-1.12,67.759-0.521
					C437.906,356.313,476.332,357.027,476.316,357.916z"/>
				<path opacity="0.7059" fill="#444143" d="M473.44,357.909c-0.015,0.857-36.911,1.541-72.99,0.961
					c-36.091-0.583-65.349-1.749-65.333-2.603c0.016-0.856,29.304-1.081,65.391-0.503
					C436.598,356.348,473.456,357.05,473.44,357.909z"/>
				<path opacity="0.7255" fill="#413F41" d="M470.564,357.901c-0.014,0.826-35.343,1.471-70.114,0.913
					c-34.783-0.562-62.982-1.686-62.966-2.509c0.016-0.825,28.244-1.042,63.023-0.484
					C435.289,356.383,470.579,357.074,470.564,357.901z"/>
				<path opacity="0.7451" fill="#3F3D3E" d="M467.688,357.894c-0.014,0.795-33.773,1.401-67.236,0.864
					c-33.476-0.541-60.615-1.623-60.601-2.414c0.015-0.794,27.184-1.003,60.655-0.467
					C433.98,356.418,467.703,357.098,467.688,357.894z"/>
				<path opacity="0.7647" fill="#3D3B3C" d="M464.813,357.886c-0.013,0.764-32.205,1.332-64.361,0.815
					c-32.167-0.52-58.249-1.559-58.234-2.32c0.015-0.763,26.124-0.963,58.288-0.448
					C432.672,356.453,464.827,357.121,464.813,357.886z"/>
				<path opacity="0.7843" fill="#3B383A" d="M461.938,357.879c-0.012,0.733-30.636,1.262-61.483,0.767
					c-30.86-0.499-55.882-1.497-55.868-2.226c0.014-0.731,25.063-0.924,55.919-0.43C431.363,356.488,461.95,357.145,461.938,357.879
					z"/>
				<path opacity="0.8039" fill="#393637" d="M459.063,357.872c-0.012,0.701-29.067,1.191-58.608,0.717
					c-29.551-0.478-53.515-1.434-53.501-2.131c0.014-0.702,24.002-0.886,53.551-0.412
					C430.056,356.523,459.074,357.168,459.063,357.872z"/>
				<path opacity="0.8235" fill="#373435" d="M456.187,357.864c-0.011,0.671-27.498,1.122-55.73,0.669
					c-28.244-0.457-51.149-1.37-51.136-2.038c0.013-0.67,22.942-0.846,51.183-0.393
					C428.747,356.558,456.198,357.192,456.187,357.864z"/>
				<path opacity="0.8431" fill="#343133" d="M453.311,357.857c-0.01,0.64-25.929,1.051-52.854,0.62
					c-26.937-0.436-48.782-1.307-48.77-1.943c0.013-0.639,21.882-0.808,48.815-0.376
					C427.438,356.593,453.321,357.215,453.311,357.857z"/>
				<path opacity="0.8627" fill="#322F30" d="M450.435,357.85c-0.01,0.609-24.359,0.981-49.977,0.571
					c-25.629-0.415-46.416-1.244-46.404-1.849c0.012-0.608,20.821-0.768,46.447-0.358
					C426.13,356.628,450.444,357.239,450.435,357.85z"/>
				<path opacity="0.8824" fill="#302D2E" d="M447.56,357.842c-0.009,0.579-22.792,0.912-47.101,0.523
					c-24.321-0.395-44.048-1.182-44.037-1.755c0.012-0.577,19.761-0.729,44.079-0.339
					C424.821,356.664,447.569,357.263,447.56,357.842z"/>
				<path opacity="0.902" fill="#2E2A2C" d="M444.684,357.834c-0.009,0.547-21.223,0.842-44.224,0.474
					c-23.014-0.373-41.682-1.118-41.671-1.66c0.011-0.546,18.7-0.69,41.711-0.321C423.513,356.699,444.692,357.286,444.684,357.834z
					"/>
				<path opacity="0.9216" fill="#2C2829" d="M441.809,357.827c-0.008,0.516-19.653,0.772-41.348,0.425
					c-21.705-0.352-39.315-1.055-39.305-1.566c0.011-0.515,17.64-0.65,39.343-0.302C422.205,356.734,441.816,357.31,441.809,357.827
					z"/>
				<path opacity="0.9412" fill="#2A2627" d="M438.933,357.82c-0.007,0.484-18.085,0.702-38.471,0.376
					c-20.398-0.332-36.949-0.992-36.939-1.472c0.01-0.484,16.579-0.612,36.975-0.285C420.896,356.77,438.939,357.333,438.933,357.82
					z"/>
				<path opacity="0.9608" fill="#272425" d="M436.057,357.813c-0.006,0.454-16.516,0.633-35.594,0.328
					c-19.09-0.311-34.581-0.929-34.572-1.378c0.009-0.453,15.519-0.573,34.606-0.267
					C419.588,356.805,436.063,357.357,436.057,357.813z"/>
				<path opacity="0.9804" fill="#252122" d="M433.182,357.805c-0.006,0.423-14.947,0.563-32.718,0.279
					c-17.782-0.29-32.215-0.866-32.207-1.284c0.009-0.422,14.458-0.534,32.239-0.249
					C418.279,356.84,433.188,357.381,433.182,357.805z"/>
				<path fill="#231F20" d="M430.306,357.798c0,0.392-13.378,0.493-29.841,0.23c-16.474-0.269-29.837-0.803-29.84-1.189
					c0.02-0.39,13.398-0.495,29.871-0.23C416.971,356.875,430.316,357.404,430.306,357.798z"/>
			</g>
		</g>
	</g>
	<g>
		<defs>
			<rect id="SVGID_11_" x="206.348" y="98.196" width="439.652" height="337.528"/>
		</defs>
		<clipPath id="SVGID_12_">
			<use xlink:href="#SVGID_11_"  overflow="visible"/>
		</clipPath>
		<path clip-path="url(#SVGID_12_)" d="M233.178,408.736h-6.455l11.768-29.792c0.629-1.588,1.515-2.705,2.657-3.351
			c1.141-0.645,2.605-0.968,4.394-0.968c1.755,0,3.204,0.323,4.344,0.968c1.143,0.646,2.011,1.762,2.607,3.351l11.32,29.792h-6.503
			l-10.179-26.961c-0.298-0.762-0.844-1.143-1.639-1.143c-0.794,0-1.357,0.381-1.688,1.143L233.178,408.736z"/>
		<path clip-path="url(#SVGID_12_)" d="M290.627,382.521v5.064h-13.01c-2.285,0-3.948,0.629-4.991,1.888
			c-1.042,1.257-1.563,3.308-1.563,6.156c0,2.846,0.521,4.891,1.563,6.133c1.043,1.239,2.706,1.861,4.991,1.861h13.01v5.113h-13.506
			c-3.51,0-6.281-1.074-8.317-3.227c-2.036-2.154-3.054-5.444-3.054-9.881s1.018-7.729,3.054-9.881
			c2.036-2.15,4.808-3.227,8.317-3.227H290.627z"/>
		<path clip-path="url(#SVGID_12_)" d="M302.145,371.149v11.371h9.234c4.437,0,7.747,1.011,9.93,3.028
			c2.186,2.02,3.277,4.834,3.277,8.442v14.746h-5.311V393.99c0-2.021-0.631-3.592-1.889-4.717c-1.255-1.125-3.258-1.688-6.007-1.688
			h-9.234v21.152h-5.264v-37.587H302.145z"/>
		<path clip-path="url(#SVGID_12_)" d="M337.297,378.747h-5.313v-6.109h5.313V378.747z M337.248,408.736h-5.265V382.52h5.265
			V408.736z"/>
		<path clip-path="url(#SVGID_12_)" d="M361.875,382.521c3.112,0,5.363,0.703,6.754,2.109c1.389,1.408,2.084,3.384,2.084,5.935
			c0,2.417-0.678,4.278-2.037,5.585c-1.356,1.309-3.64,1.962-6.85,1.962h-12.464v1.887c0,1.06,0.307,1.928,0.917,2.606
			c0.613,0.68,1.647,1.019,3.104,1.019h16.039v5.113h-16.039c-1.654,0-3.052-0.215-4.194-0.645s-2.086-1.035-2.832-1.813
			c-0.744-0.779-1.282-1.689-1.613-2.732c-0.332-1.041-0.496-2.193-0.496-3.449v-8.938c0-1.223,0.164-2.366,0.496-3.426
			c0.331-1.059,0.869-1.977,1.613-2.756c0.745-0.777,1.689-1.383,2.832-1.812c1.142-0.431,2.541-0.646,4.194-0.646H361.875z
			 M349.363,393.99h12.314c1.423,0,2.424-0.282,3.003-0.844c0.58-0.563,0.869-1.324,0.869-2.285c0-0.993-0.297-1.787-0.895-2.384
			c-0.595-0.595-1.538-0.893-2.828-0.893h-8.443c-1.457,0-2.491,0.348-3.104,1.043c-0.611,0.695-0.917,1.555-0.917,2.581V393.99z"/>
		<path clip-path="url(#SVGID_12_)" d="M379.005,382.521l8.738,21.051c0.198,0.53,0.629,0.796,1.292,0.796
			c0.694,0,1.158-0.266,1.39-0.796l9.088-21.051h5.659l-10.128,23.388c-0.564,1.257-1.334,2.14-2.311,2.656
			c-0.978,0.511-2.208,0.768-3.699,0.768c-1.524,0-2.771-0.266-3.749-0.794c-0.976-0.529-1.712-1.407-2.209-2.63l-9.633-23.388
			H379.005z"/>
		<path clip-path="url(#SVGID_12_)" d="M425.478,382.521c3.114,0,5.365,0.703,6.754,2.109c1.39,1.408,2.085,3.384,2.085,5.935
			c0,2.417-0.677,4.278-2.035,5.585c-1.358,1.309-3.639,1.962-6.852,1.962h-12.463v1.887c0,1.06,0.307,1.928,0.919,2.606
			c0.612,0.68,1.648,1.019,3.103,1.019h16.038v5.113h-16.038c-1.654,0-3.054-0.215-4.194-0.645c-1.142-0.43-2.086-1.035-2.832-1.813
			c-0.745-0.779-1.282-1.689-1.614-2.732c-0.328-1.041-0.495-2.193-0.495-3.449v-8.938c0-1.223,0.167-2.366,0.495-3.426
			c0.332-1.059,0.869-1.977,1.614-2.756c0.746-0.777,1.69-1.383,2.832-1.812c1.141-0.431,2.54-0.646,4.194-0.646H425.478z
			 M412.967,393.99h12.314c1.422,0,2.424-0.282,3.003-0.844c0.58-0.563,0.87-1.324,0.87-2.285c0-0.993-0.3-1.787-0.893-2.384
			c-0.597-0.595-1.542-0.893-2.832-0.893h-8.441c-1.454,0-2.49,0.348-3.103,1.043s-0.919,1.555-0.919,2.581V393.99z"/>
		<path clip-path="url(#SVGID_12_)" d="M458.597,382.521v5.064h-9.234c-2.252,0-3.376,1.127-3.376,3.376v17.775h-5.264v-18.568
			c0-2.649,0.536-4.586,1.614-5.81c1.073-1.226,2.905-1.838,5.486-1.838H458.597z"/>
		<path clip-path="url(#SVGID_12_)" d="M485.607,382.521v5.064h-14.498c-1.225,0-2.104,0.248-2.631,0.745
			c-0.528,0.498-0.795,1.242-0.795,2.235c0,0.927,0.255,1.63,0.769,2.11c0.515,0.479,1.498,0.719,2.956,0.719h6.156
			c1.819,0,3.319,0.198,4.494,0.597c1.174,0.396,2.102,0.928,2.781,1.589c0.676,0.663,1.148,1.439,1.414,2.334
			c0.267,0.893,0.396,1.853,0.396,2.88c0,1.157-0.158,2.227-0.47,3.202c-0.315,0.975-0.82,1.813-1.515,2.507
			c-0.697,0.696-1.59,1.244-2.681,1.638c-1.094,0.398-2.402,0.597-3.924,0.597h-15.245v-5.113h15.245
			c1.225,0,2.102-0.223,2.632-0.671c0.528-0.446,0.794-1.183,0.794-2.209c0-1.06-0.292-1.813-0.869-2.259
			c-0.578-0.447-1.532-0.67-2.854-0.67h-6.208c-1.82,0-3.31-0.209-4.468-0.622c-1.16-0.413-2.079-0.977-2.758-1.688
			c-0.679-0.713-1.148-1.531-1.414-2.459c-0.266-0.926-0.396-1.887-0.396-2.878c0-2.351,0.662-4.212,1.984-5.587
			c1.325-1.374,3.511-2.06,6.556-2.06H485.607z"/>
		<polygon clip-path="url(#SVGID_12_)" points="529.252,375.221 529.252,381.081 519.471,381.081 519.471,408.736 513.563,408.736 
			513.563,381.081 503.783,381.081 503.783,375.221 		"/>
		<path clip-path="url(#SVGID_12_)" d="M550.056,382.521c3.112,0,5.363,0.703,6.756,2.109c1.388,1.408,2.084,3.384,2.084,5.935
			c0,2.417-0.679,4.278-2.035,5.585c-1.356,1.309-3.643,1.962-6.854,1.962h-12.464v1.887c0,1.06,0.308,1.928,0.92,2.606
			c0.613,0.68,1.646,1.019,3.104,1.019h16.037v5.113h-16.037c-1.654,0-3.055-0.215-4.197-0.645c-1.142-0.43-2.085-1.035-2.829-1.813
			c-0.745-0.779-1.284-1.689-1.613-2.732c-0.332-1.041-0.499-2.193-0.499-3.449v-8.938c0-1.223,0.167-2.366,0.499-3.426
			c0.329-1.059,0.868-1.977,1.613-2.756c0.744-0.777,1.688-1.383,2.829-1.812c1.143-0.431,2.543-0.646,4.197-0.646H550.056z
			 M537.543,393.99h12.316c1.424,0,2.423-0.282,3.004-0.844c0.578-0.563,0.868-1.324,0.868-2.285c0-0.993-0.296-1.787-0.894-2.384
			c-0.597-0.595-1.539-0.893-2.831-0.893h-8.439c-1.458,0-2.491,0.348-3.104,1.043c-0.612,0.695-0.92,1.555-0.92,2.581V393.99z"/>
		<path clip-path="url(#SVGID_12_)" d="M588.982,382.521v5.064h-13.007c-2.286,0-3.947,0.629-4.991,1.888
			c-1.042,1.257-1.563,3.308-1.563,6.156c0,2.846,0.521,4.891,1.563,6.133c1.044,1.239,2.705,1.861,4.991,1.861h13.007v5.113
			h-13.504c-3.508,0-6.279-1.074-8.316-3.227c-2.035-2.154-3.054-5.444-3.054-9.881s1.019-7.729,3.054-9.881
			c2.037-2.15,4.809-3.227,8.316-3.227H588.982z"/>
		<path clip-path="url(#SVGID_12_)" d="M600.503,371.149v11.371h9.235c4.436,0,7.746,1.011,9.931,3.028
			c2.184,2.02,3.277,4.834,3.277,8.442v14.746h-5.313V393.99c0-2.021-0.628-3.592-1.887-4.717c-1.257-1.125-3.261-1.688-6.008-1.688
			h-9.235v21.152h-5.264v-37.587H600.503z"/>
	</g>
	<rect x="197.348" y="420.835" fill="none" width="591.885" height="29.776"/>
	<text transform="matrix(1 0 0 1 197.3477 437.8604)" opacity="0.7" font-family="'SegoeUIEmoji'" font-size="23">Empowering mind through software mastery</text>
</g>
<g id="Layer_3" display="none">
	<radialGradient id="SVGID_13_" cx="400" cy="400" r="495.051" gradientUnits="userSpaceOnUse">
		<stop  offset="0" style="stop-color:#FFFFFF"/>
		<stop  offset="0.5139" style="stop-color:#FDFDFD"/>
		<stop  offset="0.7317" style="stop-color:#F6F6F6"/>
		<stop  offset="0.893" style="stop-color:#E9E9E9"/>
		<stop  offset="1" style="stop-color:#DCDCDC"/>
	</radialGradient>
	<rect x="0.436" y="-0.75" fill="url(#SVGID_13_)" width="799.129" height="801.5"/>
	<g display="inline">
		<polygon fill="#F0BA4A" points="393.133,128.5 445.521,215.302 468.133,254.757 527,356.462 574.5,356.462 417,96.5 		"/>
		<linearGradient id="SVGID_14_" gradientUnits="userSpaceOnUse" x1="532.6035" y1="285.002" x2="499.9872" y2="307.4114">
			<stop  offset="0.3744" style="stop-color:#FCB813"/>
			<stop  offset="0.5089" style="stop-color:#FAAF1B"/>
			<stop  offset="0.7311" style="stop-color:#F69630"/>
			<stop  offset="0.9803" style="stop-color:#F0724F"/>
		</linearGradient>
		<path opacity="0.6" fill="url(#SVGID_14_)" d="M529.248,350l-45.392-75.391c18.562,4.81-6.079-73.354,13.563-40.518
			C509.5,254.289,566,350,566,350H529.248z"/>
	</g>
</g>
<g id="Layer_4">
	<g>
		<linearGradient id="SVGID_15_" gradientUnits="userSpaceOnUse" x1="339.2432" y1="175.6768" x2="463.6475" y2="175.6768">
			<stop  offset="0" style="stop-color:#2A3B8E"/>
			<stop  offset="1" style="stop-color:#0BB6EA"/>
		</linearGradient>
		<path fill="url(#SVGID_15_)" d="M448.197,127.966c-5.283-7.721-11.383-13.413-17.484-16.666
			c-6.093-3.663-12.193-4.473-17.476-3.253c-6.101,1.625-10.978,5.691-15.451,12.603l-58.543,116.678
			c29.677-3.658,49.194-1.219,58.139,6.506l25.61-51.228l19.518,23.175l13.821-28.458l-26.023-16.264l33.34-13.008
			C459.175,145.855,453.893,135.691,448.197,127.966L448.197,127.966z"/>
		<linearGradient id="SVGID_16_" gradientUnits="userSpaceOnUse" x1="480.3125" y1="286.6484" x2="570.3506" y2="286.6484">
			<stop  offset="0" style="stop-color:#0BB6EA"/>
			<stop  offset="0.1459" style="stop-color:#0DADE3"/>
			<stop  offset="0.3872" style="stop-color:#1494D0"/>
			<stop  offset="0.6935" style="stop-color:#1E6BB2"/>
			<stop  offset="1" style="stop-color:#2A3B8E"/>
		</linearGradient>
		<path fill="url(#SVGID_16_)" d="M559.589,343.435c4.878-2.034,8.135-4.472,9.763-8.126c1.62-3.662,1.216-8.539-0.818-13.821
			l-60.982-94.322l-27.238,55.295l37.812,60.569C535.607,347.097,549.43,347.097,559.589,343.435L559.589,343.435z"/>
		<path fill="#EE3E3C" d="M322.569,354.818c7.729-1.215,14.234-4.059,19.518-8.126l25.617-58.139l-34.967-39.841L286.8,329.613
			c-2.852,5.695-2.852,10.573,0,15.045c2.844,4.067,7.721,6.911,14.632,8.945C308.351,355.636,315.261,356.042,322.569,354.818
			L322.569,354.818z"/>
		
			<linearGradient id="SVGID_17_" gradientUnits="userSpaceOnUse" x1="473.6318" y1="195.27" x2="372.6738" y2="264.6345" gradientTransform="matrix(-0.5209 0.9926 -1.6342 -0.8577 923.9861 82.2568)">
			<stop  offset="0" style="stop-color:#0BB6EA"/>
			<stop  offset="0.1459" style="stop-color:#0DADE3"/>
			<stop  offset="0.3872" style="stop-color:#1494D0"/>
			<stop  offset="0.6935" style="stop-color:#1E6BB2"/>
			<stop  offset="1" style="stop-color:#2A3B8E"/>
		</linearGradient>
		<path fill="url(#SVGID_17_)" d="M332.737,248.712l37.521,35.788l-21.38,46.779c-22.866-29.721-46.417,21.585-62.078-1.666
			L332.737,248.712z"/>
		<path fill="#EE3E3C" d="M508.774,146.26l-65.455,26.429l23.982,10.164l-64.637,123.995c8.539,24.8,21.955,33.745,41.06,26.833
			l67.488-130.91l21.543,7.725l-23.981-64.231V146.26z"/>
		
			<linearGradient id="SVGID_18_" gradientUnits="userSpaceOnUse" x1="553.252" y1="227.0527" x2="397.2425" y2="334.241" gradientTransform="matrix(0.5152 -0.9956 0.9931 0.5139 -63.9045 584.1606)">
			<stop  offset="0" style="stop-color:#2A3B8E"/>
			<stop  offset="1" style="stop-color:#0BB6EA"/>
		</linearGradient>
		<path fill="url(#SVGID_18_)" d="M442.332,336.004l-32.187-44.782l26.189-49.071c17.997,37.914,59.946-63.238,71.534-32.979
			L442.332,336.004z"/>
		<linearGradient id="SVGID_19_" gradientUnits="userSpaceOnUse" x1="332.7373" y1="297.5371" x2="444.1299" y2="297.5371">
			<stop  offset="0" style="stop-color:#2A3B8E"/>
			<stop  offset="1" style="stop-color:#0BB6EA"/>
		</linearGradient>
		<path fill="url(#SVGID_19_)" d="M383.561,247.898c-1.224-0.811-3.662-1.625-7.325-2.034c-3.652-0.405-8.134-0.81-13.011-1.219
			c-12.599-0.405-22.767,1.219-30.487,4.067l54.891,89.035c4.463,4.878,9.341,8.54,15.037,10.565
			c5.282,2.034,10.572,2.447,16.26,2.034c5.282-0.405,10.168-2.439,14.64-5.283c4.473-3.249,8.127-7.316,10.565-12.193
			L383.561,247.898L383.561,247.898z"/>
	</g>
</g>
<g id="Layer_9" display="none">
	<g display="inline">
		<g>
			<g>
				<g>
					<g>
						<linearGradient id="SVGID_20_" gradientUnits="userSpaceOnUse" x1="461.4883" y1="604.1445" x2="468.969" y2="666.7061">
							<stop  offset="0" style="stop-color:#0BB6EA"/>
							<stop  offset="0.1459" style="stop-color:#0DADE3"/>
							<stop  offset="0.3872" style="stop-color:#1494D0"/>
							<stop  offset="0.6935" style="stop-color:#1E6BB2"/>
							<stop  offset="1" style="stop-color:#2A3B8E"/>
						</linearGradient>
						<polygon fill="url(#SVGID_20_)" points="451.862,680.483 500.588,680.483 461.829,608.925 437.467,653.901 						"/>
						<linearGradient id="SVGID_21_" gradientUnits="userSpaceOnUse" x1="439.3242" y1="616.6787" x2="474.8746" y2="676.6185">
							<stop  offset="0" style="stop-color:#0BB6EA"/>
							<stop  offset="0.1459" style="stop-color:#0DADE3"/>
							<stop  offset="0.3872" style="stop-color:#1494D0"/>
							<stop  offset="0.6935" style="stop-color:#1E6BB2"/>
							<stop  offset="1" style="stop-color:#2A3B8E"/>
						</linearGradient>
						<path fill="url(#SVGID_21_)" d="M454.292,676.404l-12.187-22.503c16.555,3.009,23.863-30.616,37.738-3.139l13.896,25.642
							H454.292z"/>
					</g>
					<linearGradient id="SVGID_22_" gradientUnits="userSpaceOnUse" x1="397.0557" y1="551.8223" x2="463.9476" y2="632.5048">
						<stop  offset="0" style="stop-color:#8AC440"/>
						<stop  offset="0.1347" style="stop-color:#81BE3F"/>
						<stop  offset="0.3574" style="stop-color:#68AD3E"/>
						<stop  offset="0.6405" style="stop-color:#3F923C"/>
						<stop  offset="0.9703" style="stop-color:#066D38"/>
						<stop  offset="1" style="stop-color:#016938"/>
					</linearGradient>
					<polygon fill="url(#SVGID_22_)" points="433.173,559.526 409.761,602.877 409.966,603.252 					"/>
					<g>
						
							<linearGradient id="SVGID_23_" gradientUnits="userSpaceOnUse" x1="435.2275" y1="489.5557" x2="333.5173" y2="682.6575" gradientTransform="matrix(0.9946 0.1036 -0.1036 0.9946 28.1998 -35.5321)">
							<stop  offset="0" style="stop-color:#0BB6EA"/>
							<stop  offset="0.1459" style="stop-color:#0DADE3"/>
							<stop  offset="0.3872" style="stop-color:#1494D0"/>
							<stop  offset="0.6935" style="stop-color:#1E6BB2"/>
							<stop  offset="1" style="stop-color:#2A3B8E"/>
						</linearGradient>
						<polygon fill="url(#SVGID_23_)" points="380.71,474.697 264.626,707.005 313.066,708.414 409.596,521.503 						"/>
						
							<linearGradient id="SVGID_24_" gradientUnits="userSpaceOnUse" x1="351.8193" y1="636.1465" x2="414.6305" y2="518.9988" gradientTransform="matrix(0.9946 0.1036 -0.1036 0.9946 28.1998 -35.5321)">
							<stop  offset="0" style="stop-color:#0BB6EA"/>
							<stop  offset="0.1459" style="stop-color:#0DADE3"/>
							<stop  offset="0.3872" style="stop-color:#1494D0"/>
							<stop  offset="0.6935" style="stop-color:#1E6BB2"/>
							<stop  offset="1" style="stop-color:#2A3B8E"/>
						</linearGradient>
						<path opacity="0.7" fill="url(#SVGID_24_)" d="M301.959,640.471l79.115-151.772l18.708,31.959l-48.465,98.71
							C334.889,608.865,310.687,653.246,301.959,640.471z"/>
					</g>
					<g id="XMLID_1_">
						<g>
							<polygon fill="#EE3E3C" points="399.78,711.073 419.672,674.377 497.201,674.377 517.548,711.073 							"/>
						</g>
						<g>
						</g>
					</g>
					<g>
						<polygon fill="#EFB94A" points="463.189,510.051 433.173,559.526 409.761,602.877 351.318,711.083 399.779,711.083 
							488.132,553.377 						"/>
						<linearGradient id="SVGID_25_" gradientUnits="userSpaceOnUse" x1="461.3027" y1="624.9756" x2="352.951" y2="699.42">
							<stop  offset="0" style="stop-color:#F9B616"/>
							<stop  offset="0.1524" style="stop-color:#F8AD17"/>
							<stop  offset="0.4044" style="stop-color:#F5941A"/>
							<stop  offset="0.7228" style="stop-color:#F16B1F"/>
							<stop  offset="1" style="stop-color:#ED4224"/>
						</linearGradient>
						<path opacity="0.6" fill="url(#SVGID_25_)" d="M358.162,707.005l42.297-78.316c6.178,19.839,64.07-47.485,45.055-10.646
							c-11.695,22.653-48.164,88.963-48.164,88.963H358.162z"/>
					</g>
					<linearGradient id="SVGID_26_" gradientUnits="userSpaceOnUse" x1="502.2549" y1="660.3389" x2="402.2988" y2="729.0149">
						<stop  offset="0" style="stop-color:#F9B616"/>
						<stop  offset="0.1524" style="stop-color:#F8AD17"/>
						<stop  offset="0.4044" style="stop-color:#F5941A"/>
						<stop  offset="0.7228" style="stop-color:#F16B1F"/>
						<stop  offset="1" style="stop-color:#ED4224"/>
					</linearGradient>
					<path opacity="0.3" fill="url(#SVGID_26_)" d="M406.637,707.005l15.465-28.561h29.42c-14.959,19.723,49.3,14.274,36.61,28.561
						H406.637z"/>
					<linearGradient id="SVGID_27_" gradientUnits="userSpaceOnUse" x1="369.4321" y1="774.9492" x2="440.3548" y2="638.2434">
						<stop  offset="0" style="stop-color:#F9B616"/>
						<stop  offset="0.1524" style="stop-color:#F8AD17"/>
						<stop  offset="0.4044" style="stop-color:#F5941A"/>
						<stop  offset="0.7228" style="stop-color:#F16B1F"/>
						<stop  offset="1" style="stop-color:#ED4224"/>
					</linearGradient>
					<polygon fill="url(#SVGID_27_)" points="419.673,674.365 399.779,711.083 400.804,711.083 424.4,674.365 					"/>
					<g>
						<linearGradient id="SVGID_28_" gradientUnits="userSpaceOnUse" x1="393.811" y1="560.6426" x2="429.3496" y2="560.6426">
							<stop  offset="0" style="stop-color:#0BB6EA"/>
							<stop  offset="0.1459" style="stop-color:#0DADE3"/>
							<stop  offset="0.3872" style="stop-color:#1494D0"/>
							<stop  offset="0.6935" style="stop-color:#1E6BB2"/>
							<stop  offset="1" style="stop-color:#2A3B8E"/>
						</linearGradient>
						<polygon fill="url(#SVGID_28_)" points="414.459,529.729 393.811,565.334 409.761,591.556 429.35,552.219 						"/>
						<linearGradient id="SVGID_29_" gradientUnits="userSpaceOnUse" x1="399.7788" y1="557.8789" x2="424.6006" y2="557.8789">
							<stop  offset="0" style="stop-color:#0BB6EA"/>
							<stop  offset="0.1459" style="stop-color:#0DADE3"/>
							<stop  offset="0.3872" style="stop-color:#1494D0"/>
							<stop  offset="0.6935" style="stop-color:#1E6BB2"/>
							<stop  offset="1" style="stop-color:#2A3B8E"/>
						</linearGradient>
						<path fill="url(#SVGID_29_)" d="M413.845,536.913l10.756,17.584c-16.454-3.538-7.417,43.347-20.403,15.436l-4.418-8.103
							L413.845,536.913z"/>
					</g>
				</g>
				<g opacity="0.45">
					<path opacity="0" fill="#919395" d="M587.965,712.612c-0.045,2.14-101.184,4.39-191.275,2.939
						c-90.106-1.45-163.104-4.349-163.069-6.498c0.035-2.13,73.107-2.689,163.209-1.25
						C486.922,709.254,588.005,710.474,587.965,712.612z"/>
					<path opacity="0.0196" fill="#8F9193" d="M584.85,712.604c-0.044,2.106-99.484,4.314-188.159,2.887
						c-88.689-1.427-160.539-4.279-160.505-6.395c0.035-2.097,71.958-2.647,160.643-1.23
						C485.505,709.292,584.889,710.499,584.85,712.604z"/>
					<path opacity="0.0392" fill="#8D8E90" d="M581.733,712.596c-0.043,2.072-97.783,4.239-185.042,2.834
						c-87.272-1.404-157.975-4.212-157.941-6.293c0.034-2.063,70.809-2.605,158.078-1.211
						C484.087,709.33,581.773,710.524,581.733,712.596z"/>
					<path opacity="0.0588" fill="#8A8C8E" d="M578.618,712.588c-0.042,2.039-96.084,4.163-181.926,2.781
						c-85.856-1.382-155.411-4.144-155.378-6.191c0.034-2.029,69.66-2.563,155.512-1.191
						C482.669,709.368,578.656,710.55,578.618,712.588z"/>
					<path opacity="0.0784" fill="#888A8C" d="M575.503,712.58c-0.041,2.005-94.384,4.087-178.81,2.729
						c-84.439-1.359-152.846-4.075-152.814-6.09c0.034-1.995,68.512-2.521,152.947-1.171
						C481.252,709.407,575.541,710.575,575.503,712.58z"/>
					<path opacity="0.098" fill="#868889" d="M572.387,712.572c-0.04,1.971-92.684,4.012-175.692,2.676
						c-83.022-1.337-150.282-4.008-150.251-5.987c0.034-1.963,67.363-2.479,150.381-1.152
						C479.834,709.445,572.425,710.602,572.387,712.572z"/>
					<path opacity="0.1176" fill="#848587" d="M569.271,712.564c-0.039,1.937-90.984,3.936-172.575,2.622
						c-81.606-1.313-147.718-3.938-147.688-5.885c0.033-1.929,66.214-2.437,147.815-1.133
						C478.416,709.483,569.309,710.627,569.271,712.564z"/>
					<path opacity="0.1373" fill="#828385" d="M566.156,712.556c-0.039,1.904-89.284,3.86-169.459,2.571
						c-80.189-1.291-145.153-3.872-145.125-5.783c0.033-1.896,65.065-2.395,145.25-1.113
						C476.999,709.521,566.193,710.652,566.156,712.556z"/>
					<path opacity="0.1569" fill="#808182" d="M563.041,712.548c-0.038,1.87-87.585,3.784-166.343,2.519
						c-78.772-1.269-142.589-3.804-142.561-5.682c0.033-1.862,63.916-2.353,142.685-1.093
						C475.581,709.56,563.077,710.678,563.041,712.548z"/>
					<path opacity="0.1765" fill="#7D7F80" d="M559.926,712.54c-0.037,1.836-85.885,3.708-163.227,2.465
						c-77.355-1.245-140.025-3.734-139.997-5.579c0.033-1.828,62.767-2.31,140.118-1.073
						C474.164,709.598,559.961,710.703,559.926,712.54z"/>
					<path opacity="0.1961" fill="#7B7C7E" d="M556.811,712.531c-0.037,1.803-84.186,3.633-160.11,2.413
						c-75.938-1.223-137.461-3.667-137.434-5.478c0.032-1.794,61.619-2.268,137.553-1.054
						C472.746,709.636,556.846,710.729,556.811,712.531z"/>
					<path opacity="0.2157" fill="#797A7C" d="M553.694,712.523c-0.035,1.77-82.485,3.558-156.993,2.359
						c-74.521-1.199-134.896-3.598-134.87-5.374c0.032-1.761,60.47-2.226,134.987-1.034
						C471.328,709.674,553.729,710.754,553.694,712.523z"/>
					<path opacity="0.2353" fill="#777879" d="M550.579,712.516c-0.034,1.735-80.785,3.481-153.877,2.307
						c-73.104-1.177-132.335-3.529-132.307-5.272c0.028-1.728,59.321-2.184,132.422-1.015
						C469.911,709.713,550.613,710.779,550.579,712.516z"/>
					<path opacity="0.2549" fill="#757577" d="M547.464,712.508c-0.034,1.701-79.086,3.406-150.761,2.254
						c-71.688-1.154-129.771-3.462-129.743-5.17c0.028-1.694,58.172-2.142,129.856-0.996
						C468.493,709.75,547.497,710.805,547.464,712.508z"/>
					<path opacity="0.2745" fill="#737375" d="M544.348,712.5c-0.032,1.668-77.385,3.33-147.644,2.201
						c-70.271-1.132-127.207-3.394-127.179-5.068c0.028-1.66,57.023-2.1,127.291-0.976
						C467.075,709.789,544.381,710.83,544.348,712.5z"/>
					<path opacity="0.2941" fill="#707172" d="M541.232,712.491c-0.031,1.635-75.686,3.255-144.527,2.149
						c-68.854-1.109-124.644-3.326-124.616-4.967c0.027-1.627,55.875-2.057,124.725-0.955
						C465.658,709.827,541.266,710.856,541.232,712.491z"/>
					<path opacity="0.3137" fill="#6E6F70" d="M538.117,712.483c-0.031,1.601-73.986,3.179-141.41,2.096
						c-67.438-1.086-122.08-3.257-122.053-4.864c0.027-1.593,54.725-2.015,122.16-0.936
						C464.24,709.865,538.149,710.881,538.117,712.483z"/>
					<path opacity="0.3333" fill="#6C6C6E" d="M535.002,712.476c-0.03,1.566-72.286,3.104-138.294,2.043
						c-66.021-1.063-119.516-3.188-119.489-4.762c0.026-1.56,53.577-1.973,119.594-0.917
						C462.822,709.903,535.033,710.907,535.002,712.476z"/>
					<path opacity="0.3529" fill="#6A6A6B" d="M531.886,712.468c-0.028,1.533-70.586,3.027-135.177,1.99
						c-64.604-1.04-116.952-3.121-116.926-4.659c0.026-1.527,52.428-1.932,117.028-0.897
						C461.405,709.941,531.917,710.933,531.886,712.468z"/>
					<path opacity="0.3725" fill="#686869" d="M528.771,712.459c-0.028,1.5-68.886,2.952-132.061,1.938
						c-63.188-1.018-114.388-3.053-114.362-4.558c0.025-1.493,51.279-1.889,114.463-0.878
						C459.987,709.98,528.801,710.958,528.771,712.459z"/>
					<path opacity="0.3922" fill="#656667" d="M525.655,712.451c-0.027,1.466-67.187,2.877-128.944,1.886
						c-61.771-0.996-111.823-2.985-111.798-4.456c0.025-1.459,50.13-1.846,111.896-0.857
						C458.57,710.019,525.686,710.983,525.655,712.451z"/>
					<path opacity="0.4118" fill="#636364" d="M522.54,712.443c-0.026,1.432-65.487,2.801-125.828,1.832
						c-60.354-0.973-109.26-2.916-109.235-4.354c0.024-1.426,48.981-1.804,109.332-0.838
						C457.152,710.057,522.569,711.009,522.54,712.443z"/>
					<path opacity="0.4314" fill="#616162" d="M519.424,712.436c-0.025,1.398-63.787,2.725-122.711,1.779
						c-58.937-0.949-106.695-2.848-106.671-4.251c0.024-1.393,47.832-1.763,106.766-0.819
						C455.734,710.095,519.453,711.034,519.424,712.436z"/>
					<path opacity="0.451" fill="#5F5F60" d="M516.309,712.428c-0.024,1.364-62.087,2.648-119.595,1.727
						c-57.52-0.927-104.131-2.779-104.107-4.149c0.023-1.358,46.684-1.72,104.2-0.799
						C454.317,710.133,516.338,711.061,516.309,712.428z"/>
					<path opacity="0.4706" fill="#5D5C5D" d="M513.193,712.419c-0.023,1.331-60.387,2.573-116.478,1.675
						c-56.103-0.904-101.567-2.712-101.544-4.047c0.023-1.326,45.534-1.678,101.635-0.78
						C452.899,710.172,513.221,711.085,513.193,712.419z"/>
					<path opacity="0.4902" fill="#5B5A5B" d="M510.078,712.412c-0.023,1.297-58.688,2.497-113.362,1.621
						c-54.686-0.882-99.004-2.645-98.981-3.945c0.022-1.292,44.386-1.637,99.069-0.76
						C451.481,710.209,510.105,711.111,510.078,712.412z"/>
					<path opacity="0.5098" fill="#585859" d="M506.963,712.402c-0.022,1.264-56.988,2.423-110.245,1.57
						c-53.27-0.859-96.44-2.576-96.418-3.844c0.021-1.258,43.237-1.594,96.504-0.74
						C450.064,710.248,506.989,711.137,506.963,712.402z"/>
					<path opacity="0.5294" fill="#565657" d="M503.847,712.395c-0.023,1.23-55.288,2.347-107.128,1.517
						c-51.853-0.836-93.876-2.507-93.854-3.74c0.021-1.226,42.089-1.552,93.938-0.721
						C448.646,710.285,503.87,711.162,503.847,712.395z"/>
					<path opacity="0.549" fill="#545354" d="M500.731,712.387c-0.023,1.196-53.588,2.271-104.012,1.464
						c-50.437-0.813-91.312-2.438-91.291-3.639c0.021-1.191,40.939-1.509,91.373-0.701
						C447.229,710.324,500.755,711.188,500.731,712.387z"/>
					<path opacity="0.5686" fill="#525152" d="M497.616,712.379c-0.022,1.162-51.889,2.195-100.896,1.41
						c-49.019-0.789-88.747-2.37-88.727-3.536c0.021-1.157,39.79-1.467,88.807-0.681
						C445.812,710.362,497.639,711.213,497.616,712.379z"/>
					<path opacity="0.5882" fill="#504F50" d="M494.5,712.371c-0.021,1.129-50.188,2.119-97.778,1.357
						c-47.603-0.768-86.184-2.302-86.164-3.434c0.02-1.125,38.642-1.426,86.241-0.662C444.394,710.4,494.522,711.238,494.5,712.371z
						"/>
					<path opacity="0.6078" fill="#4E4C4D" d="M491.385,712.363c-0.021,1.095-48.488,2.043-94.662,1.305
						c-46.186-0.745-83.62-2.234-83.6-3.332c0.02-1.09,37.493-1.383,83.676-0.643C442.977,710.438,491.406,711.264,491.385,712.363z
						"/>
					<path opacity="0.6275" fill="#4B4A4B" d="M488.27,712.355c-0.021,1.061-46.788,1.968-91.545,1.252
						c-44.769-0.722-81.056-2.166-81.036-3.23c0.02-1.057,36.343-1.34,81.11-0.623C441.559,710.477,488.29,711.289,488.27,712.355z"
						/>
					<path opacity="0.6471" fill="#494849" d="M485.154,712.347c-0.02,1.028-45.089,1.893-88.429,1.2
						c-43.352-0.699-78.492-2.098-78.473-3.128c0.019-1.024,35.195-1.299,78.545-0.603
						C440.141,710.516,485.174,711.314,485.154,712.347z"/>
					<path opacity="0.6667" fill="#474646" d="M482.038,712.339c-0.019,0.993-43.388,1.817-85.312,1.147
						c-41.936-0.678-75.928-2.03-75.91-3.026c0.018-0.989,34.047-1.257,75.979-0.583
						C438.723,710.554,482.058,711.34,482.038,712.339z"/>
					<path opacity="0.6863" fill="#454344" d="M478.923,712.331c-0.019,0.96-41.688,1.741-82.195,1.094
						c-40.519-0.653-73.364-1.961-73.346-2.924c0.018-0.956,32.897-1.214,73.414-0.563
						C437.306,710.592,478.941,711.365,478.923,712.331z"/>
					<path opacity="0.7059" fill="#434142" d="M475.808,712.322c-0.018,0.927-39.989,1.666-79.079,1.042
						c-39.102-0.631-70.799-1.894-70.782-2.821c0.017-0.924,31.748-1.172,70.848-0.545
						C435.889,710.63,475.825,711.392,475.808,712.322z"/>
					<path opacity="0.7255" fill="#403F3F" d="M472.691,712.314c-0.017,0.893-38.289,1.59-75.962,0.989
						c-37.685-0.608-68.235-1.825-68.219-2.72c0.017-0.889,30.6-1.13,68.282-0.524C434.471,710.668,472.709,711.416,472.691,712.314
						z"/>
					<path opacity="0.7451" fill="#3E3D3D" d="M469.576,712.307c-0.016,0.859-36.589,1.514-72.846,0.937
						c-36.268-0.586-65.672-1.757-65.655-2.618c0.016-0.855,29.451-1.088,65.717-0.505
						C433.053,710.706,469.593,711.442,469.576,712.307z"/>
					<path opacity="0.7647" fill="#3C3A3B" d="M466.461,712.299c-0.016,0.825-34.89,1.438-69.729,0.883
						c-34.852-0.563-63.108-1.688-63.092-2.515c0.016-0.822,28.302-1.046,63.151-0.485
						C431.636,710.744,466.477,711.468,466.461,712.299z"/>
					<path opacity="0.7843" fill="#3A3838" d="M463.346,712.291c-0.015,0.791-33.189,1.362-66.613,0.83
						c-33.435-0.54-60.544-1.62-60.528-2.413c0.015-0.788,27.153-1.003,60.585-0.466
						C430.218,710.782,463.36,711.493,463.346,712.291z"/>
					<path opacity="0.8039" fill="#383636" d="M460.23,712.282c-0.014,0.759-31.49,1.287-63.497,0.778
						c-32.018-0.518-57.98-1.552-57.965-2.312c0.015-0.755,26.004-0.961,58.02-0.445C428.8,710.82,460.245,711.519,460.23,712.282z"
						/>
					<path opacity="0.8235" fill="#363334" d="M457.114,712.274c-0.014,0.725-29.789,1.211-60.379,0.726
						c-30.601-0.495-55.416-1.484-55.401-2.209c0.015-0.722,24.855-0.919,55.455-0.427
						C427.383,710.859,457.128,711.544,457.114,712.274z"/>
					<path opacity="0.8431" fill="#333132" d="M453.999,712.267c-0.013,0.69-28.09,1.136-57.263,0.673
						c-29.184-0.473-52.851-1.416-52.837-2.107c0.014-0.688,23.706-0.877,52.889-0.406
						C425.965,710.897,454.012,711.57,453.999,712.267z"/>
					<path opacity="0.8627" fill="#312F2F" d="M450.884,712.259c-0.012,0.656-26.39,1.06-54.147,0.62
						c-27.767-0.449-50.288-1.348-50.274-2.005c0.014-0.655,22.558-0.835,50.323-0.388
						C424.547,710.936,450.896,711.595,450.884,712.259z"/>
					<path opacity="0.8824" fill="#2F2D2D" d="M447.769,712.251c-0.012,0.622-24.69,0.983-51.031,0.566
						c-26.35-0.427-47.724-1.279-47.71-1.902c0.013-0.621,21.409-0.793,47.758-0.368C423.13,710.974,447.78,711.62,447.769,712.251z
						"/>
					<path opacity="0.902" fill="#2D2A2B" d="M444.652,712.242c-0.011,0.59-22.99,0.909-47.913,0.515
						c-24.934-0.404-45.16-1.211-45.147-1.801c0.013-0.588,20.26-0.75,45.192-0.348
						C421.712,711.012,444.663,711.646,444.652,712.242z"/>
					<path opacity="0.9216" fill="#2B2828" d="M441.537,712.234c-0.01,0.556-21.291,0.833-44.796,0.462
						c-23.517-0.381-42.596-1.143-42.584-1.699c0.012-0.554,19.111-0.708,42.626-0.328
						C420.295,711.051,441.548,711.672,441.537,712.234z"/>
					<path opacity="0.9412" fill="#292626" d="M438.422,712.227c-0.009,0.521-19.591,0.757-41.68,0.409
						c-22.1-0.358-40.032-1.075-40.021-1.597s17.962-0.666,40.061-0.309C418.877,711.089,438.432,711.697,438.422,712.227z"/>
					<path opacity="0.9608" fill="#262424" d="M435.306,712.218c-0.009,0.488-17.891,0.683-38.563,0.356
						c-20.684-0.335-37.468-1.006-37.457-1.494s16.813-0.624,37.496-0.289C417.459,711.127,435.314,711.723,435.306,712.218z"/>
					<path opacity="0.9804" fill="#242121" d="M432.19,712.21c-0.008,0.455-16.19,0.605-35.447,0.304
						c-19.266-0.313-34.903-0.938-34.893-1.392c0.01-0.455,15.664-0.582,34.93-0.27C416.042,711.165,432.198,711.748,432.19,712.21z
						"/>
					<path fill="#221F1F" d="M429.075,712.202c0,0.421-14.491,0.53-32.331,0.251c-17.85-0.29-32.325-0.87-32.33-1.29
						c0.025-0.42,14.516-0.54,32.364-0.25C414.624,711.203,429.09,711.773,429.075,712.202z"/>
				</g>
			</g>
		</g>
		<g>
			<polygon fill="#EFB949" points="388.802,463.78 445.559,557.82 470.057,600.567 533.837,710.754 585.3,710.754 414.659,429.111 
							"/>
			<linearGradient id="SVGID_30_" gradientUnits="userSpaceOnUse" x1="539.9043" y1="633.3369" x2="504.5693" y2="657.6143">
				<stop  offset="0.3744" style="stop-color:#F9B616"/>
				<stop  offset="0.5118" style="stop-color:#F7AD1E"/>
				<stop  offset="0.7389" style="stop-color:#F39433"/>
				<stop  offset="0.9803" style="stop-color:#EE724F"/>
			</linearGradient>
			<path opacity="0.6" fill="url(#SVGID_30_)" d="M536.271,703.756l-49.181-81.681c20.114,5.215-6.588-79.47,14.696-43.896
				c13.086,21.884,74.301,125.576,74.301,125.576H536.271z"/>
		</g>
	</g>
</g>
<g id="Layer_8" display="none">
	<g display="inline">
		<linearGradient id="SVGID_31_" gradientUnits="userSpaceOnUse" x1="323.7373" y1="537.8701" x2="448.1416" y2="537.8701">
			<stop  offset="0" style="stop-color:#F9B616"/>
			<stop  offset="0.1524" style="stop-color:#F8AD17"/>
			<stop  offset="0.4044" style="stop-color:#F5941A"/>
			<stop  offset="0.7228" style="stop-color:#F16B1F"/>
			<stop  offset="1" style="stop-color:#ED4224"/>
		</linearGradient>
		<path fill="url(#SVGID_31_)" d="M432.691,490.16c-5.283-7.722-11.383-13.414-17.484-16.666
			c-6.093-3.662-12.193-4.473-17.476-3.253c-6.101,1.624-10.978,5.691-15.451,12.603l-58.543,116.678
			c29.677-3.657,49.194-1.219,58.139,6.507l25.61-51.228l19.518,23.175l13.821-28.458l-26.023-16.264l33.34-13.008
			C443.669,508.049,438.387,497.885,432.691,490.16L432.691,490.16z"/>
		<linearGradient id="SVGID_32_" gradientUnits="userSpaceOnUse" x1="464.8066" y1="648.8418" x2="554.8447" y2="648.8418">
			<stop  offset="0" style="stop-color:#F9B616"/>
			<stop  offset="0.1524" style="stop-color:#F8AD17"/>
			<stop  offset="0.4044" style="stop-color:#F5941A"/>
			<stop  offset="0.7228" style="stop-color:#F16B1F"/>
			<stop  offset="1" style="stop-color:#ED4224"/>
		</linearGradient>
		<path fill="url(#SVGID_32_)" d="M544.083,705.629c4.878-2.034,8.135-4.473,9.763-8.127c1.62-3.662,1.216-8.539-0.818-13.821
			l-60.982-94.322l-27.238,55.296l37.812,60.568C520.102,709.29,533.924,709.29,544.083,705.629L544.083,705.629z"/>
		<linearGradient id="SVGID_33_" gradientUnits="userSpaceOnUse" x1="269.1553" y1="663.8965" x2="352.1982" y2="663.8965">
			<stop  offset="0" style="stop-color:#2A3B8E"/>
			<stop  offset="1" style="stop-color:#0BB6EA"/>
		</linearGradient>
		<path fill="url(#SVGID_33_)" d="M307.063,717.012c7.729-1.215,14.234-4.059,19.518-8.127l25.617-58.139l-34.562-40.654
			l-46.343,81.715c-2.852,5.695-2.852,10.572,0,15.045c2.844,4.066,7.721,6.911,14.632,8.945
			C292.845,717.83,299.755,718.234,307.063,717.012L307.063,717.012z"/>
		<linearGradient id="SVGID_34_" gradientUnits="userSpaceOnUse" x1="387.1592" y1="603.293" x2="517.25" y2="603.293">
			<stop  offset="0" style="stop-color:#0BB6EA"/>
			<stop  offset="0.1459" style="stop-color:#0DADE3"/>
			<stop  offset="0.3872" style="stop-color:#1494D0"/>
			<stop  offset="0.6935" style="stop-color:#1E6BB2"/>
			<stop  offset="1" style="stop-color:#2A3B8E"/>
		</linearGradient>
		<path fill="url(#SVGID_34_)" d="M493.269,508.453l-65.455,26.429l23.982,10.163L387.159,669.04
			c8.539,24.8,21.955,33.745,41.06,26.833l67.488-130.909l21.543,7.726l-23.981-64.232V508.453z"/>
		<linearGradient id="SVGID_35_" gradientUnits="userSpaceOnUse" x1="317.2314" y1="659.7305" x2="428.624" y2="659.7305">
			<stop  offset="0" style="stop-color:#0BB6EA"/>
			<stop  offset="0.1459" style="stop-color:#0DADE3"/>
			<stop  offset="0.3872" style="stop-color:#1494D0"/>
			<stop  offset="0.6935" style="stop-color:#1E6BB2"/>
			<stop  offset="1" style="stop-color:#2A3B8E"/>
		</linearGradient>
		<path fill="url(#SVGID_35_)" d="M368.055,610.092c-1.224-0.811-3.662-1.625-7.325-2.034c-3.652-0.405-8.134-0.81-13.011-1.22
			c-12.599-0.404-22.767,1.22-30.487,4.067l54.891,89.035c4.463,4.878,9.341,8.54,15.037,10.565
			c5.282,2.033,10.572,2.447,16.26,2.033c5.282-0.404,10.168-2.438,14.64-5.282c4.473-3.249,8.127-7.316,10.565-12.193
			L368.055,610.092L368.055,610.092z"/>
	</g>
</g>
<g id="Layer_7" display="none">
	<g display="inline">
		<linearGradient id="SVGID_36_" gradientUnits="userSpaceOnUse" x1="333.2588" y1="564.8887" x2="457.6631" y2="564.8887">
			<stop  offset="0" style="stop-color:#0BB6EA"/>
			<stop  offset="0.1459" style="stop-color:#0DADE3"/>
			<stop  offset="0.3872" style="stop-color:#1494D0"/>
			<stop  offset="0.6935" style="stop-color:#1E6BB2"/>
			<stop  offset="1" style="stop-color:#2A3B8E"/>
		</linearGradient>
		<path fill="url(#SVGID_36_)" d="M442.213,517.179c-5.283-7.722-11.383-13.414-17.484-16.666
			c-6.093-3.662-12.193-4.473-17.476-3.253c-6.101,1.624-10.978,5.691-15.451,12.603L333.259,626.54
			c29.677-3.657,49.194-1.219,58.139,6.507l25.61-51.228l19.518,23.175l13.821-28.458l-26.023-16.264l33.34-13.008
			C453.19,535.067,447.908,524.903,442.213,517.179L442.213,517.179z"/>
		<linearGradient id="SVGID_37_" gradientUnits="userSpaceOnUse" x1="474.3281" y1="675.8613" x2="564.3662" y2="675.8613">
			<stop  offset="0" style="stop-color:#0BB6EA"/>
			<stop  offset="0.1459" style="stop-color:#0DADE3"/>
			<stop  offset="0.3872" style="stop-color:#1494D0"/>
			<stop  offset="0.6935" style="stop-color:#1E6BB2"/>
			<stop  offset="1" style="stop-color:#2A3B8E"/>
		</linearGradient>
		<path fill="url(#SVGID_37_)" d="M553.604,732.647c4.878-2.034,8.135-4.473,9.763-8.127c1.62-3.662,1.216-8.539-0.818-13.821
			l-60.982-94.322l-27.238,55.296l37.812,60.568C529.623,736.309,543.445,736.309,553.604,732.647L553.604,732.647z"/>
		<linearGradient id="SVGID_38_" gradientUnits="userSpaceOnUse" x1="278.6768" y1="690.9141" x2="361.7197" y2="690.9141">
			<stop  offset="0" style="stop-color:#F9B616"/>
			<stop  offset="0.1524" style="stop-color:#F8AD17"/>
			<stop  offset="0.4044" style="stop-color:#F5941A"/>
			<stop  offset="0.7228" style="stop-color:#F16B1F"/>
			<stop  offset="1" style="stop-color:#ED4224"/>
		</linearGradient>
		<path fill="url(#SVGID_38_)" d="M316.585,744.03c7.729-1.215,14.234-4.059,19.518-8.127l25.617-58.139l-34.562-40.654
			l-46.343,81.715c-2.852,5.695-2.852,10.572,0,15.045c2.844,4.066,7.721,6.911,14.632,8.945
			C302.366,744.849,309.276,745.253,316.585,744.03L316.585,744.03z"/>
		<linearGradient id="SVGID_39_" gradientUnits="userSpaceOnUse" x1="396.6807" y1="630.3115" x2="526.7715" y2="630.3115">
			<stop  offset="0" style="stop-color:#F9B616"/>
			<stop  offset="0.1524" style="stop-color:#F8AD17"/>
			<stop  offset="0.4044" style="stop-color:#F5941A"/>
			<stop  offset="0.7228" style="stop-color:#F16B1F"/>
			<stop  offset="1" style="stop-color:#ED4224"/>
		</linearGradient>
		<path fill="url(#SVGID_39_)" d="M502.79,535.472L437.335,561.9l23.982,10.163l-64.637,123.995
			c8.539,24.8,21.955,33.745,41.06,26.833l67.488-130.909l21.543,7.726l-23.981-64.232V535.472z"/>
		<linearGradient id="SVGID_40_" gradientUnits="userSpaceOnUse" x1="326.7529" y1="686.748" x2="438.1455" y2="686.748">
			<stop  offset="0" style="stop-color:#F9B616"/>
			<stop  offset="0.1524" style="stop-color:#F8AD17"/>
			<stop  offset="0.4044" style="stop-color:#F5941A"/>
			<stop  offset="0.7228" style="stop-color:#F16B1F"/>
			<stop  offset="1" style="stop-color:#ED4224"/>
		</linearGradient>
		<path fill="url(#SVGID_40_)" d="M377.576,637.11c-1.224-0.811-3.662-1.625-7.325-2.034c-3.652-0.405-8.134-0.81-13.011-1.22
			c-12.599-0.404-22.767,1.22-30.487,4.067l54.891,89.035c4.463,4.878,9.341,8.54,15.037,10.565
			c5.282,2.033,10.572,2.447,16.26,2.033c5.282-0.404,10.168-2.438,14.64-5.282c4.473-3.249,8.127-7.316,10.565-12.193
			L377.576,637.11L377.576,637.11z"/>
	</g>
</g>
<g id="Layer_6">
</g>
</svg>
