<?xml version="1.0" encoding="utf-8"?>
<!-- Generator: Adobe Illustrator 16.0.0, SVG Export Plug-In . SVG Version: 6.00 Build 0)  -->
<!DOCTYPE svg PUBLIC "-//W3C//DTD SVG 1.1//EN" "http://www.w3.org/Graphics/SVG/1.1/DTD/svg11.dtd">
<svg version="1.1" id="Layer_1" xmlns="http://www.w3.org/2000/svg" xmlns:xlink="http://www.w3.org/1999/xlink" x="0px" y="0px"
	 width="220px" height="75px" viewBox="0 0 720 216" enable-background="new 0 0 720 216" xml:space="preserve">
<g>
	<g>
		<g>
			<defs>
				<path id="SVGID_1_" d="M92.1,66.93c-2.059-3.056-4.438-5.306-6.817-6.593c-2.375-1.449-4.755-1.767-6.816-1.287
					c-2.378,0.642-4.28,2.251-6.025,4.984l-22.832,46.14c11.571-1.447,15.695-0.48,19.184,2.575l10.608-18.842l9.392,10.748
					l6.48-14.253L85.123,83.97l13.005-5.143C96.384,74.003,94.322,69.983,92.1,66.93L92.1,66.93z"/>
			</defs>
			<clipPath id="SVGID_2_">
				<use xlink:href="#SVGID_1_"  overflow="visible"/>
			</clipPath>
			
		</g>
	</g>
	
	<path fill-rule="evenodd" clip-rule="evenodd" fill="#0D53A5" d="M161.814,133.497h-8.787l16.006-41.075
		c3.216-8.201,16.022-8.22,19.045,0l15.395,41.075h-8.841L180.79,96.313c-0.412-1.049-1.147-1.575-2.231-1.575
		c-1.074,0-1.844,0.529-2.297,1.575L161.814,133.497z"/>
	<path fill-rule="evenodd" clip-rule="evenodd" fill="#0D53A5" d="M239.939,97.353v6.984h-17.691c-3.112,0-5.375,0.871-6.791,2.608
		s-2.12,4.56-2.12,8.486c0,3.933,0.704,6.75,2.12,8.461c1.417,1.712,3.682,2.573,6.791,2.573h17.691v7.051h-18.37
		c-4.769,0-8.543-1.477-11.31-4.452c-2.776-2.969-4.158-7.504-4.158-13.623c0-6.112,1.385-10.657,4.158-13.623
		c2.766-2.969,6.531-4.442,11.31-4.442l18.37-0.007V97.353z"/>
	<path fill-rule="evenodd" clip-rule="evenodd" fill="#0D53A5" d="M255.61,81.673v15.68h12.562c6.037,0,10.53,1.391,13.505,4.177
		c2.976,2.786,4.453,6.658,4.453,11.646v20.332h-7.219v-20.332c0-2.792-0.855-4.962-2.573-6.506
		c-1.711-1.549-4.427-2.323-8.166-2.323H255.61v29.169h-7.158V81.683h7.158V81.673z"/>
	<path fill-rule="evenodd" clip-rule="evenodd" fill="#0D53A5" d="M303.409,92.146h-7.228v-8.417h7.228V92.146L303.409,92.146z
		 M303.343,133.497h-7.162V97.343l7.162,0.003V133.497z"/>
	<path fill-rule="evenodd" clip-rule="evenodd" fill="#0D53A5" d="M336.838,97.353c4.227,0,7.294,0.957,9.18,2.909
		c1.895,1.936,2.833,4.671,2.833,8.191c0,3.321-0.922,5.895-2.776,7.707c-1.845,1.803-4.947,2.699-9.317,2.699h-16.94v2.608
		c0,1.458,0.412,2.649,1.242,3.597c0.83,0.932,2.237,1.4,4.217,1.4h21.815v7.051h-21.808c-2.247,0-4.151-0.285-5.701-0.887
		c-1.55-0.58-2.833-1.427-3.847-2.497c-1.014-1.071-1.743-2.323-2.196-3.765c-0.453-1.433-0.678-3.011-0.678-4.754V109.29
		c0-1.686,0.225-3.261,0.678-4.722c0.444-1.467,1.182-2.725,2.196-3.799c1.014-1.074,2.288-1.911,3.847-2.497
		c1.559-0.605,3.454-0.887,5.701-0.887l11.554-0.006V97.353L336.838,97.353z M319.818,113.175h16.744
		c1.937,0,3.302-0.393,4.084-1.173c0.795-0.779,1.191-1.828,1.191-3.143c0-1.376-0.402-2.476-1.223-3.303
		c-0.814-0.82-2.088-1.223-3.841-1.223l-11.49-0.003c-1.978,0-3.388,0.479-4.218,1.432c-0.83,0.954-1.242,2.155-1.242,3.562
		l0.003,3.851H319.818z"/>
	<path fill-rule="evenodd" clip-rule="evenodd" fill="#0D53A5" d="M360.129,97.353l11.88,29.027c0.27,0.729,0.856,1.105,1.753,1.105
		c0.947,0,1.574-0.377,1.886-1.105l12.367-29.027h7.697l-13.775,32.263c-0.763,1.727-1.818,2.943-3.143,3.663
		c-1.335,0.703-3.001,1.049-5.032,1.049c-2.079,0-3.774-0.361-5.099-1.09c-1.334-0.738-2.333-1.937-3.001-3.622l-13.104-32.263
		H360.129z"/>
	<path fill-rule="evenodd" clip-rule="evenodd" fill="#0D53A5" d="M423.339,97.353c4.227,0,7.295,0.957,9.18,2.909
		c1.886,1.936,2.843,4.671,2.843,8.191c0,3.321-0.922,5.895-2.776,7.707c-1.844,1.803-4.946,2.699-9.316,2.699h-16.94v2.608
		c0,1.458,0.412,2.649,1.248,3.597c0.83,0.932,2.237,1.4,4.218,1.4h21.815v7.051h-21.815c-2.246,0-4.157-0.285-5.7-0.887
		c-1.56-0.58-2.833-1.427-3.856-2.497c-1.008-1.074-1.743-2.323-2.19-3.765c-0.443-1.433-0.678-3.011-0.678-4.754V109.29
		c0-1.686,0.234-3.261,0.678-4.722c0.444-1.46,1.183-2.725,2.19-3.799c1.023-1.074,2.297-1.911,3.856-2.497
		c1.543-0.605,3.454-0.887,5.7-0.887l11.545-0.006V97.353L423.339,97.353z M406.318,113.175h16.744c1.946,0,3.312-0.393,4.085-1.173
		c0.796-0.779,1.191-1.828,1.191-3.143c0-1.376-0.402-2.476-1.223-3.303c-0.814-0.82-2.089-1.223-3.841-1.223l-11.49-0.003
		c-1.978,0-3.388,0.479-4.218,1.432c-0.84,0.957-1.249,2.155-1.249,3.562V113.175L406.318,113.175z"/>
	<path fill-rule="evenodd" clip-rule="evenodd" fill="#0D53A5" d="M468.381,97.353v6.984h-12.562c-3.067,0-4.585,1.55-4.585,4.661
		v24.509h-7.162v-25.605c0-3.663,0.729-6.332,2.189-8.014c1.468-1.686,3.965-2.532,7.479-2.532L468.381,97.353L468.381,97.353z"/>
	<path fill-rule="evenodd" clip-rule="evenodd" fill="#0D53A5" d="M505.111,97.353v6.984h-19.72c-1.67,0-2.858,0.336-3.581,1.023
		c-0.729,0.688-1.08,1.711-1.08,3.086c0,1.274,0.342,2.247,1.049,2.909c0.696,0.653,2.027,0.989,4.015,0.989h8.369
		c2.475,0,4.519,0.275,6.112,0.83c1.594,0.535,2.868,1.268,3.78,2.189c0.913,0.906,1.56,1.978,1.921,3.22
		c0.361,1.232,0.535,2.558,0.535,3.974c0,1.601-0.209,3.067-0.637,4.418c-0.428,1.34-1.125,2.497-2.054,3.454
		c-0.957,0.957-2.171,1.711-3.656,2.256c-1.493,0.555-3.261,0.83-5.34,0.83h-20.737v-7.051h20.737c1.66,0,2.858-0.311,3.587-0.922
		c0.713-0.611,1.074-1.626,1.074-3.036c0-1.477-0.402-2.516-1.182-3.118c-0.789-0.611-2.079-0.922-3.882-0.922l-8.445-0.003
		c-2.475,0-4.503-0.285-6.087-0.865c-1.575-0.561-2.817-1.351-3.739-2.323c-0.932-0.981-1.56-2.113-1.921-3.396
		c-0.367-1.268-0.535-2.599-0.535-3.958c0-3.261,0.906-5.818,2.7-7.723c1.803-1.895,4.763-2.827,8.914-2.827L505.111,97.353
		L505.111,97.353z"/>
	<polygon fill-rule="evenodd" clip-rule="evenodd" fill="#F26522" points="564.471,87.285 564.471,95.356 551.158,95.356 
		551.158,133.497 543.119,133.497 543.119,95.356 529.829,95.356 529.829,87.285 	"/>
	<path fill-rule="evenodd" clip-rule="evenodd" fill="#F26522" d="M592.753,97.353c4.233,0,7.295,0.957,9.196,2.909
		c1.895,1.936,2.833,4.671,2.833,8.191c0,3.321-0.913,5.895-2.757,7.707c-1.854,1.803-4.963,2.699-9.323,2.699h-16.953v2.608
		c0,1.458,0.428,2.649,1.248,3.597c0.84,0.932,2.237,1.4,4.228,1.4h21.814v7.051h-21.814c-2.263,0-4.151-0.285-5.717-0.887
		c-1.559-0.58-2.826-1.427-3.831-2.497c-1.015-1.074-1.762-2.323-2.215-3.765c-0.453-1.433-0.672-3.011-0.672-4.754V109.29
		c0-1.686,0.219-3.261,0.672-4.722c0.453-1.46,1.197-2.725,2.215-3.799c1.008-1.074,2.282-1.911,3.831-2.497
		c1.568-0.605,3.454-0.887,5.717-0.887l11.528-0.006V97.353L592.753,97.353z M575.739,113.175h16.754
		c1.93,0,3.302-0.393,4.085-1.173c0.795-0.779,1.191-1.828,1.191-3.143c0-1.376-0.412-2.476-1.224-3.303
		c-0.814-0.82-2.095-1.223-3.847-1.223l-11.484-0.003c-1.986,0-3.388,0.479-4.227,1.432c-0.831,0.957-1.249,2.155-1.249,3.562
		V113.175z"/>
	<path fill-rule="evenodd" clip-rule="evenodd" fill="#F26522" d="M645.698,97.353v6.984H628.01c-3.112,0-5.365,0.871-6.801,2.608
		c-1.41,1.737-2.119,4.56-2.119,8.486c0,3.933,0.713,6.75,2.119,8.461c1.433,1.712,3.683,2.573,6.801,2.573h17.688v7.051h-18.37
		c-4.763,0-8.533-1.477-11.31-4.452c-2.767-2.969-4.151-7.504-4.151-13.623c0-6.112,1.385-10.657,4.151-13.623
		c2.776-2.969,6.541-4.442,11.31-4.442l18.37-0.007V97.353z"/>
	<path fill-rule="evenodd" clip-rule="evenodd" fill="#F26522" d="M661.369,81.673v15.68h12.567c6.021,0,10.53,1.391,13.499,4.177
		c2.96,2.782,4.452,6.658,4.452,11.646v20.332h-7.228v-20.332c0-2.792-0.855-4.962-2.567-6.506
		c-1.711-1.543-4.427-2.323-8.166-2.323h-12.564v29.169h-7.161V81.683h7.168V81.673z"/>
	<polygon fill-rule="evenodd" clip-rule="evenodd" fill="#0D53A5" points="172.551,83.607 184.623,83.627 188.078,92.422 
		169.033,92.422 	"/>
	<polygon fill-rule="evenodd" clip-rule="evenodd" fill="#0D53A5" points="172.551,85.981 184.623,86.002 188.078,94.796 
		169.171,94.796 	"/>
	<polygon fill-rule="evenodd" clip-rule="evenodd" fill="#0D53A5" points="191.778,112.559 194.94,119.411 164.592,119.321 
		164.592,112.501 	"/>
</g>
</svg>
