<svg version="1.2" xmlns="http://www.w3.org/2000/svg" viewBox="150 0 500 500" width="70" height="70">
	<title>avg-svg</title>
	<defs>
		<clipPath clipPathUnits="userSpaceOnUse" id="cp1">
			<path d="m206.35 98.2h439.65v337.52h-439.65z"/>
		</clipPath>
		<clipPath clipPathUnits="userSpaceOnUse" id="cp2">
			<path d="m206.35 98.2h439.65v337.52h-439.65z"/>
		</clipPath>
		<clipPath clipPathUnits="userSpaceOnUse" id="cp3">
			<path d="m206.35 98.2h439.65v337.52h-439.65z"/>
		</clipPath>
		<clipPath clipPathUnits="userSpaceOnUse" id="cp4">
			<path d="m206.35 98.2h439.65v337.52h-439.65z"/>
		</clipPath>
		<clipPath clipPathUnits="userSpaceOnUse" id="cp5">
			<path d="m206.35 98.2h439.65v337.52h-439.65z"/>
		</clipPath>
		<clipPath clipPathUnits="userSpaceOnUse" id="cp6">
			<path d="m206.35 98.2h439.65v337.52h-439.65z"/>
		</clipPath>
		<clipPath clipPathUnits="userSpaceOnUse" id="cp7">
			<path d="m206.35 98.2h439.65v337.52h-439.65z"/>
		</clipPath>
		<clipPath clipPathUnits="userSpaceOnUse" id="cp8">
			<path d="m206.35 98.2h439.65v337.52h-439.65z"/>
		</clipPath>
		<clipPath clipPathUnits="userSpaceOnUse" id="cp9">
			<path d="m206.35 98.2h439.65v337.52h-439.65z"/>
		</clipPath>
		<clipPath clipPathUnits="userSpaceOnUse" id="cp10">
			<path d="m206.35 98.2h439.65v337.52h-439.65z"/>
		</clipPath>
		<clipPath clipPathUnits="userSpaceOnUse" id="cp11">
			<path d="m206.35 98.2h439.65v337.52h-439.65z"/>
		</clipPath>
		<clipPath clipPathUnits="userSpaceOnUse" id="cp12">
			<path d="m206.35 98.2h439.65v337.52h-439.65z"/>
		</clipPath>
		<clipPath clipPathUnits="userSpaceOnUse" id="cp13">
			<path d="m206.35 98.2h439.65v337.52h-439.65z"/>
		</clipPath>
		<linearGradient id="g1" x2="1" gradientUnits="userSpaceOnUse" gradientTransform="matrix(124.404,0,0,136.316,338.737,178.87)">
			<stop offset="0" stop-color="#f9b616"/>
			<stop offset=".152" stop-color="#f8ad17"/>
			<stop offset=".404" stop-color="#f5941a"/>
			<stop offset=".723" stop-color="#f16b1f"/>
			<stop offset="1" stop-color="#ed4224"/>
		</linearGradient>
		<linearGradient id="g2" x2="1" gradientUnits="userSpaceOnUse" gradientTransform="matrix(90.038,0,0,118.968,479.807,289.842)">
			<stop offset="0" stop-color="#f9b616"/>
			<stop offset=".152" stop-color="#f8ad17"/>
			<stop offset=".404" stop-color="#f5941a"/>
			<stop offset=".723" stop-color="#f16b1f"/>
			<stop offset="1" stop-color="#ed4224"/>
		</linearGradient>
		<linearGradient id="g3" x2="1" gradientUnits="userSpaceOnUse" gradientTransform="matrix(83.043,0,0,107.609,284.155,304.896)">
			<stop offset="0" stop-color="#2a3b8e"/>
			<stop offset="1" stop-color="#0bb6ea"/>
		</linearGradient>
		<linearGradient id="g4" x2="1" gradientUnits="userSpaceOnUse" gradientTransform="matrix(130.091,0,0,189.672,402.159,244.293)">
			<stop offset="0" stop-color="#0bb6ea"/>
			<stop offset=".146" stop-color="#0dade3"/>
			<stop offset=".387" stop-color="#1494d0"/>
			<stop offset=".694" stop-color="#1e6bb2"/>
			<stop offset="1" stop-color="#2a3b8e"/>
		</linearGradient>
		<linearGradient id="g5" x2="1" gradientUnits="userSpaceOnUse" gradientTransform="matrix(111.393,0,0,105.906,332.231,300.731)">
			<stop offset="0" stop-color="#0bb6ea"/>
			<stop offset=".146" stop-color="#0dade3"/>
			<stop offset=".387" stop-color="#1494d0"/>
			<stop offset=".694" stop-color="#1e6bb2"/>
			<stop offset="1" stop-color="#2a3b8e"/>
		</linearGradient>
	</defs>
	<style>
		tspan { white-space:pre } 
		.s0 { fill: #000000 } 
		.s1 { fill: none } 
		.t2 { font-size: 23px;fill: #000000;font-family: "' Segoe UI Emoji'" } 
		.s3 { fill: url(#g1) } 
		.s4 { fill: url(#g2) } 
		.s5 { fill: url(#g3) } 
		.s6 { fill: url(#g4) } 
		.s7 { fill: url(#g5) } 
	</style>
	<g id="Layer_5">
		<g id="Layer">
			<g id="Clip-Path" clip-path="url(#cp1)">
				<path id="Layer" class="s0" d="m233.2 408.7h-6.5l11.8-29.8q0.9-2.3 2.6-3.3 1.8-1 4.4-1 2.7 0 4.4 1 1.7 1 2.6 3.3l11.3 29.8h-6.5l-10.2-26.9q-0.4-1.2-1.6-1.2-1.2 0-1.7 1.2z"/>
			</g>
			<g id="Clip-Path" clip-path="url(#cp2)">
				<path id="Layer" class="s0" d="m290.6 382.5v5.1h-13q-3.4 0-5 1.9-1.5 1.9-1.5 6.1 0 4.3 1.5 6.2 1.6 1.8 5 1.8h13v5.1h-13.5q-5.2 0-8.3-3.2-3.1-3.2-3.1-9.9 0-6.6 3.1-9.9 3.1-3.2 8.3-3.2c0 0 13.5 0 13.5 0z"/>
			</g>
			<g id="Clip-Path" clip-path="url(#cp3)">
				<path id="Layer" class="s0" d="m302.1 371.1v11.4h9.3q6.6 0 9.9 3 3.3 3.1 3.3 8.5v14.7h-5.3v-14.7q0-3-1.9-4.7-1.9-1.7-6-1.7h-9.3v21.1h-5.2v-37.5c0 0 5.2 0 5.2-0.1z"/>
			</g>
			<g id="Clip-Path" clip-path="url(#cp4)">
				<path id="Layer" class="s0" d="m337.3 378.7h-5.3v-6.1h5.3zm-0.1 30h-5.2v-26.2h5.2z"/>
			</g>
			<g id="Clip-Path" clip-path="url(#cp5)">
				<path id="Layer" fill-rule="evenodd" class="s0" d="m361.9 382.5q4.6 0 6.7 2.1 2.1 2.1 2.1 6 0 3.6-2 5.5-2.1 2-6.9 2h-12.4v1.9q0 1.6 0.9 2.6 0.9 1 3.1 1h16v5.1h-16q-2.5 0-4.2-0.6-1.7-0.7-2.8-1.8-1.2-1.2-1.7-2.8-0.5-1.5-0.5-3.4v-8.9q0-1.9 0.5-3.5 0.5-1.6 1.7-2.7 1.1-1.2 2.8-1.8 1.7-0.7 4.2-0.7c0 0 8.5 0 8.5 0zm-12.5 11.5h12.3q2.1 0 3-0.9 0.8-0.8 0.8-2.2 0.1-1.5-0.8-2.4-0.9-0.9-2.9-0.9h-8.4q-2.2 0-3.1 1-0.9 1.1-0.9 2.6c0 0 0 2.8 0 2.8z"/>
			</g>
			<g id="Clip-Path" clip-path="url(#cp6)">
				<path id="Layer" class="s0" d="m379 382.5l8.7 21.1q0.3 0.8 1.3 0.8 1.1 0 1.4-0.8l9.1-21.1h5.7l-10.2 23.4q-0.8 1.9-2.3 2.7-1.4 0.7-3.7 0.7-2.3 0-3.7-0.8-1.5-0.8-2.2-2.6l-9.7-23.4z"/>
			</g>
			<g id="Clip-Path" clip-path="url(#cp7)">
				<path id="Layer" fill-rule="evenodd" class="s0" d="m425.5 382.5q4.6 0 6.7 2.1 2.1 2.1 2.1 6 0 3.6-2 5.5-2.1 2-6.9 2h-12.4v1.9q0 1.6 0.9 2.6 0.9 1 3.1 1h16v5.1h-16q-2.5 0-4.2-0.6-1.7-0.7-2.8-1.8-1.2-1.2-1.7-2.8-0.4-1.5-0.4-3.4v-8.9q0-1.9 0.4-3.5 0.5-1.6 1.7-2.7 1.1-1.2 2.8-1.8 1.7-0.7 4.2-0.7c0 0 8.5 0 8.5 0zm-12.5 11.5h12.3q2.1 0 3-0.9 0.9-0.8 0.9-2.2 0-1.5-0.9-2.4-0.9-0.9-2.9-0.9h-8.4q-2.2 0-3.1 1-0.9 1.1-0.9 2.6c0 0 0 2.8 0 2.8z"/>
			</g>
			<g id="Clip-Path" clip-path="url(#cp8)">
				<path id="Layer" class="s0" d="m458.6 382.5v5.1h-9.2q-3.4 0-3.4 3.4v17.7h-5.3v-18.5q0-4 1.6-5.8 1.6-1.9 5.5-1.9c0 0 10.8 0 10.8 0z"/>
			</g>
			<g id="Clip-Path" clip-path="url(#cp9)">
				<path id="Layer" class="s0" d="m485.6 382.5v5.1h-14.5q-1.8 0-2.6 0.7-0.8 0.8-0.8 2.3 0 1.4 0.8 2.1 0.7 0.7 2.9 0.7h6.2q2.7 0 4.5 0.6 1.7 0.6 2.7 1.6 1.1 1 1.5 2.3 0.4 1.4 0.3 2.9 0 1.7-0.4 3.2-0.5 1.5-1.5 2.5-1.1 1-2.7 1.6-1.7 0.6-3.9 0.6h-15.3v-5.1h15.3q1.8 0 2.6-0.6 0.8-0.7 0.8-2.3 0-1.5-0.9-2.2-0.9-0.7-2.8-0.7h-6.2q-2.8 0-4.5-0.6-1.8-0.6-2.8-1.7-1-1.1-1.4-2.5-0.4-1.3-0.4-2.8 0-3.6 2-5.6 2-2.1 6.6-2.1c0 0 14.5 0 14.5 0z"/>
			</g>
			<g id="Clip-Path" clip-path="url(#cp10)">
				<path id="Layer" class="s0" d="m529.3 375.2v5.9h-9.8v27.6h-5.9v-27.6h-9.8v-5.9z"/>
			</g>
			<g id="Clip-Path" clip-path="url(#cp11)">
				<path id="Layer" fill-rule="evenodd" class="s0" d="m550.1 382.5q4.6 0 6.7 2.1 2.1 2.1 2.1 6 0 3.6-2 5.5-2.1 2-6.9 2h-12.5v1.9q0 1.6 1 2.6 0.9 1 3.1 1h16v5.1h-16q-2.5 0-4.2-0.6-1.7-0.7-2.9-1.8-1.1-1.2-1.6-2.8-0.5-1.5-0.5-3.4v-8.9q0-1.9 0.5-3.5 0.5-1.6 1.6-2.7 1.2-1.2 2.9-1.8 1.7-0.7 4.2-0.7c0 0 8.5 0 8.5 0zm-12.6 11.5h12.4q2.1 0 3-0.9 0.8-0.8 0.8-2.2 0-1.5-0.9-2.4-0.9-0.9-2.8-0.9h-8.4q-2.2 0-3.1 1-1 1.1-1 2.6z"/>
			</g>
			<g id="Clip-Path" clip-path="url(#cp12)">
				<path id="Layer" class="s0" d="m589 382.5v5.1h-13q-3.5 0-5 1.9-1.6 1.9-1.6 6.1 0 4.3 1.6 6.2 1.5 1.8 5 1.8h13v5.1h-13.5q-5.3 0-8.3-3.2-3.1-3.2-3.1-9.9 0-6.6 3.1-9.9 3-3.2 8.3-3.2c0 0 13.5 0 13.5 0z"/>
			</g>
			<g id="Clip-Path" clip-path="url(#cp13)">
				<path id="Layer" class="s0" d="m600.5 371.1v11.4h9.2q6.7 0 10 3 3.2 3.1 3.2 8.5v14.7h-5.3v-14.7q0-3-1.9-4.7-1.8-1.7-6-1.7h-9.2v21.1h-5.3v-37.5c0 0 5.3 0 5.3-0.1z"/>
			</g>
		</g>
		<path id="Layer" class="s1" d="m197.3 420.8h591.9v29.8h-591.9z"/>
		<text id="Empowering mind through software mastery" style="transform: matrix(1,0,0,1,197.348,437.86)" >
			<tspan x="0" y="0" class="t2">Empowering mind through software mastery
</tspan>
		</text>
	</g>
	<g id="Layer_4">
		<g id="Layer">
			<path id="Layer" class="s3" d="m447.7 131.2c-5.3-7.8-11.4-13.5-17.5-16.7-6.1-3.7-12.2-4.5-17.5-3.3-6.1 1.7-10.9 5.7-15.4 12.6l-58.6 116.7c29.7-3.6 49.2-1.2 58.2 6.5l25.6-51.2 19.5 23.2 13.8-28.5-26-16.2 33.3-13.1c-4.4-12.2-9.7-22.3-15.4-30z"/>
			<path id="Layer" class="s4" d="m559.1 346.6c4.9-2 8.1-4.4 9.7-8.1 1.7-3.7 1.3-8.5-0.8-13.8l-61-94.3-27.2 55.3 37.8 60.5c17.5 4.1 31.3 4.1 41.5 0.4z"/>
			<path id="Layer" class="s5" d="m322.1 358c7.7-1.2 14.2-4 19.5-8.1l25.6-58.2-34.6-40.6-46.3 81.7c-2.9 5.7-2.9 10.6 0 15.1 2.8 4 7.7 6.9 14.6 8.9 6.9 2 13.9 2.4 21.2 1.2z"/>
			<path id="Layer" class="s6" d="m508.3 149.5l-65.5 26.4 24 10.1-64.6 124c8.5 24.8 21.9 33.8 41 26.9l67.5-130.9 21.5 7.7-23.9-64.2z"/>
			<path id="Layer" class="s7" d="m383.1 251.1c-1.3-0.8-3.7-1.6-7.4-2-3.6-0.4-8.1-0.9-13-1.3-12.6-0.4-22.7 1.3-30.5 4.1l54.9 89c4.5 4.9 9.4 8.6 15.1 10.6 5.2 2 10.5 2.5 16.2 2 5.3-0.4 10.2-2.4 14.7-5.2 4.4-3.3 8.1-7.4 10.5-12.2z"/>
		</g>
	</g>
	<g id="Layer_6">
	</g>
</svg>